<svg width="24" height="24" viewBox="0 0 24 24" fill="none" xmlns="http://www.w3.org/2000/svg">
<path d="M23.8118 19.1743L20.6825 15.3343L20.5711 8.57143C20.5747 8.52579 20.5747 8.47993 20.5711 8.43429C19.5851 3.06857 16.4644 0 11.9976 0C7.28225 0 3.49279 3.42857 2.56686 8.41714C2.56222 8.46847 2.56222 8.5201 2.56686 8.57143L2.45541 15.4286L0.114862 19.2686C0.0396148 19.3989 0 19.5467 0 19.6971C0 19.8476 0.0396148 19.9954 0.114862 20.1257C0.187479 20.2585 0.293946 20.3696 0.423447 20.4479C0.552948 20.5262 0.700867 20.5688 0.852177 20.5714H8.56826C8.56826 21.4807 8.92957 22.3528 9.5727 22.9958C10.2158 23.6388 11.0881 24 11.9976 24C12.9072 24 13.7794 23.6388 14.4226 22.9958C15.0657 22.3528 15.427 21.4807 15.427 20.5714H23.1431C23.3047 20.571 23.4629 20.5249 23.5994 20.4384C23.7359 20.352 23.8452 20.2287 23.9147 20.0829C23.9851 19.9371 24.0128 19.7745 23.9946 19.6137C23.9764 19.4529 23.913 19.3006 23.8118 19.1743ZM11.9976 22.2857C11.5429 22.2857 11.1067 22.1051 10.7852 21.7836C10.4636 21.4621 10.2829 21.0261 10.2829 20.5714H13.7123C13.7123 21.0261 13.5317 21.4621 13.2101 21.7836C12.8885 22.1051 12.4524 22.2857 11.9976 22.2857ZM2.36967 18.8571L4.08436 16.08C4.16141 15.9502 4.20282 15.8024 4.20439 15.6514L4.28155 8.65714C5.06173 4.5 8.15674 1.71429 11.9976 1.71429C16.8245 1.71429 18.3677 6 18.8564 8.65714L18.9764 15.6514C18.9775 15.8448 19.044 16.0321 19.165 16.1829L21.3427 18.8571H2.36967Z" fill="#00FFF0"/>
</svg>
