<svg width="32" height="24" viewBox="0 0 32 24" fill="none" xmlns="http://www.w3.org/2000/svg">
<path fill-rule="evenodd" clip-rule="evenodd" d="M21.922 11.8438C21.922 15.1144 19.2706 17.7658 16.0001 17.7658C12.7295 17.7658 10.0781 15.1144 10.0781 11.8438C10.0781 8.57322 12.7295 5.92188 16.0001 5.92188C19.2706 5.92188 21.922 8.57322 21.922 11.8438ZM19.7013 11.8438C19.7013 13.8879 18.0442 15.5451 16.0001 15.5451C13.956 15.5451 12.2989 13.8879 12.2989 11.8438C12.2989 9.79972 13.956 8.14261 16.0001 8.14261C18.0442 8.14261 19.7013 9.79972 19.7013 11.8438Z" fill="white"/>
<path fill-rule="evenodd" clip-rule="evenodd" d="M31.7018 12.9959C32.0994 12.2722 32.0994 11.4156 31.7018 10.6919C30.0661 7.71545 24.9618 0 16 0C7.0381 0 1.93393 7.71544 0.298289 10.6919C-0.0994297 11.4156 -0.0994297 12.2722 0.298289 12.9959C1.93393 15.9724 7.0381 23.6878 16 23.6878C24.9618 23.6878 30.0661 15.9724 31.7018 12.9959ZM25.1268 17.7949C27.4647 15.7263 29.0042 13.2936 29.7555 11.9264C29.7748 11.8911 29.7792 11.8639 29.7792 11.8439C29.7792 11.8239 29.7748 11.7967 29.7555 11.7614C29.0042 10.3942 27.4647 7.96148 25.1268 5.89301C22.8076 3.84125 19.793 2.22073 16 2.22073C12.207 2.22073 9.19242 3.84125 6.8733 5.89301C4.53532 7.96148 2.99586 10.3942 2.24452 11.7614C2.22517 11.7967 2.22073 11.8239 2.22073 11.8439C2.22073 11.8639 2.22517 11.8911 2.24452 11.9264C2.99586 13.2936 4.53532 15.7263 6.8733 17.7949C9.19242 19.8465 12.207 21.4671 16 21.4671C19.793 21.4671 22.8076 19.8465 25.1268 17.7949Z" fill="white"/>
</svg>
