<svg width="30" height="30" viewBox="0 0 30 30" fill="none" xmlns="http://www.w3.org/2000/svg">
<path fill-rule="evenodd" clip-rule="evenodd" d="M28.7928 3.5293L28.8462 3.5293C29.4834 3.5293 30 4.18771 30 4.99991C30 5.8121 29.4834 6.47052 28.8462 6.47052C26.7488 6.47052 23.999 6.48236 21.4429 7.63616C18.954 8.75964 16.6484 10.9661 15.3958 15.4895C13.9054 20.8714 11.4244 23.6991 8.68291 25.1133C6.05076 26.4712 3.26581 26.471 1.22333 26.4708L1.15385 26.4708C0.516595 26.4708 0 25.8124 0 25.0002C0 24.188 0.516595 23.5296 1.15385 23.5296C3.25917 23.5296 5.63305 23.5137 7.81709 22.387C9.92179 21.3012 11.9407 19.1288 13.2196 14.5106C14.7362 9.03383 17.6229 6.24025 20.6725 4.86369C23.6292 3.52904 26.7357 3.5292 28.7928 3.5293Z" fill="#565656"/>
<path fill-rule="evenodd" clip-rule="evenodd" d="M25.2609 0.430752C25.7115 -0.143567 26.4421 -0.143587 26.8927 0.43071L26.0768 1.47061L25.2609 2.51051C24.8103 1.93621 24.8103 1.00507 25.2609 0.430752ZM26.0768 8.52952L25.261 7.4896L27.2143 5.00007L25.2609 2.51051L26.0768 1.47061L26.8927 0.43071L29.662 3.96022C30.1125 4.53452 30.1125 5.46561 29.662 6.03991L26.893 9.56903L26.0768 8.52952ZM26.0768 8.52952L25.261 7.4896C24.8103 8.0639 24.8103 8.99506 25.2609 9.56938C25.7115 10.1437 26.4424 10.1433 26.893 9.56903L26.0768 8.52952Z" fill="#565656"/>
<path fill-rule="evenodd" clip-rule="evenodd" d="M8.68291 4.88675C11.4244 6.30101 13.9054 9.1287 15.3958 14.5106C16.6484 19.034 18.954 21.2404 21.4429 22.3639C23.999 23.5177 26.7488 23.5296 28.8462 23.5296C29.4834 23.5296 30 24.188 30 25.0002C30 25.8124 29.4834 26.4708 28.8462 26.4708H28.7928C26.7357 26.4709 23.6292 26.471 20.6725 25.1364C17.6229 23.7598 14.7362 20.9663 13.2196 15.4895C11.9407 10.8712 9.92179 8.69887 7.81709 7.6131C5.63305 6.48641 3.25917 6.47053 1.15384 6.47052C0.516591 6.47052 -2.20078e-06 5.8121 0 4.99991C2.20079e-06 4.18771 0.516598 3.5293 1.15385 3.5293C1.17694 3.5293 1.20012 3.5293 1.22341 3.5293C3.26588 3.52913 6.0508 3.5289 8.68291 4.88675Z" fill="#565656"/>
<path fill-rule="evenodd" clip-rule="evenodd" d="M25.2608 20.4307C25.7114 19.8564 26.442 19.8564 26.8926 20.4307L26.0767 21.4706L25.2608 22.5105C24.8102 21.9362 24.8102 21.005 25.2608 20.4307ZM26.0767 28.5295L25.2608 27.4896L27.2138 25.0005L25.2608 22.5105L26.0767 21.4706L26.8926 20.4307L29.6618 23.9602C30.1124 24.5345 30.1124 25.4656 29.6618 26.0399L26.8933 29.5685L26.8926 29.5694L26.0767 28.5295ZM26.0767 28.5295L25.2608 27.4896C24.8102 28.0639 24.8102 28.9951 25.2608 29.5694C25.7114 30.1437 26.442 30.1437 26.8926 29.5694L26.0767 28.5295Z" fill="#565656"/>
</svg>
