<svg width="32" height="30" viewBox="0 0 32 30" fill="none" xmlns="http://www.w3.org/2000/svg">
<path d="M31.5783 16.0601C31.3111 15.8378 30.9592 15.7456 30.6172 15.8085L26.5621 16.5555V14.006C26.5621 13.3595 26.0381 12.8355 25.3916 12.8355H24.6812C26.1776 11.4865 27.1203 9.53417 27.1203 7.36547C27.1204 3.30413 23.8164 0 19.7551 0C17.158 0 14.872 1.3525 13.5603 3.38897C12.2484 1.3525 9.96268 0 7.36547 0C3.30413 0 0 3.30413 0 7.36547C0 9.53417 0.94262 11.4864 2.43914 12.8355H1.72876C1.08234 12.8355 0.558212 13.3595 0.558212 14.006V28.001C0.558212 28.6476 1.08234 29.1716 1.72876 29.1716H10.859L11.4134 29.1716C11.9561 29.1716 11.1362 29.1716 11.9561 29.1716C12.4032 29.1716 12.3073 29.1716 12.7223 29.1716H13.5602L14.0778 29.1716C14.2388 29.1716 14.3365 29.1716 14.636 29.1716C14.9354 29.1716 14.5421 29.1716 14.9731 29.1716C15.4041 29.1716 15.3562 29.1716 15.7525 29.1716H16.2615H25.3918C26.0382 29.1716 26.5624 28.6476 26.5624 28.001V25.4516L30.6173 26.1988C30.6879 26.2118 30.7588 26.2181 30.8295 26.2181C31.1008 26.2181 31.3664 26.1236 31.5784 25.9471C31.8457 25.7246 32 25.395 32 25.0476V16.9596C31.9999 16.6122 31.8454 16.2825 31.5783 16.0601ZM19.7552 2.34119C22.5257 2.34119 24.7795 4.59511 24.7795 7.36556C24.7795 10.1359 22.5257 12.3898 19.7552 12.3898C16.9848 12.3898 14.7309 10.136 14.7309 7.36556C14.7308 4.59511 16.9848 2.34119 19.7552 2.34119ZM13.5602 11.342C13.9161 11.8945 14.3425 12.3972 14.8288 12.8356H12.2917C12.778 12.3972 13.2044 11.8945 13.5602 11.342ZM2.34119 7.36556C2.34119 4.59511 4.59511 2.34119 7.36556 2.34119C10.1359 2.34119 12.3897 4.59511 12.3897 7.36556C12.3897 10.1359 10.1359 12.3898 7.36556 12.3898C4.59501 12.3898 2.34119 10.136 2.34119 7.36556ZM24.2213 26.8307H2.8994V15.1767H24.2213V26.8307ZM29.6588 23.6417L26.5624 23.0712V18.9361L29.6588 18.3656V23.6417Z" fill="white"/>
</svg>
