<svg width="30" height="30" viewBox="0 0 30 30" fill="none" xmlns="http://www.w3.org/2000/svg">
<path fill-rule="evenodd" clip-rule="evenodd" d="M28.8461 20.7695C29.4833 20.7695 29.9999 21.2861 29.9999 21.9234V25.3849C29.9999 27.934 27.9336 30.0003 25.3845 30.0003H21.923C21.2858 30.0003 20.7692 29.4837 20.7692 28.8465C20.7692 28.2092 21.2858 27.6926 21.923 27.6926H25.3845C26.6591 27.6926 27.6922 26.6595 27.6922 25.3849V21.9234C27.6922 21.2861 28.2088 20.7695 28.8461 20.7695Z" fill="#565656"/>
<path fill-rule="evenodd" clip-rule="evenodd" d="M0 4.61538C0 2.06638 2.06638 0 4.61538 0H8.07692C8.71418 0 9.23077 0.516595 9.23077 1.15385C9.23077 1.7911 8.71418 2.30769 8.07692 2.30769H4.61538C3.34088 2.30769 2.30769 3.34088 2.30769 4.61538V8.07692C2.30769 8.71418 1.7911 9.23077 1.15385 9.23077C0.516595 9.23077 0 8.71418 0 8.07692V4.61538Z" fill="#565656"/>
<path fill-rule="evenodd" clip-rule="evenodd" d="M1.15385 20.7695C1.7911 20.7695 2.30769 21.2861 2.30769 21.9234V25.3849C2.30769 26.6595 3.34087 27.6926 4.61538 27.6926H8.07692C8.71418 27.6926 9.23077 28.2092 9.23077 28.8465C9.23077 29.4837 8.71418 30.0003 8.07692 30.0003H4.61538C2.06639 30.0003 0 27.934 0 25.3849V21.9234C0 21.2861 0.516595 20.7695 1.15385 20.7695Z" fill="#565656"/>
<path fill-rule="evenodd" clip-rule="evenodd" d="M20.7692 1.15385C20.7692 0.516595 21.2858 0 21.923 0H25.3845C27.9336 0 29.9999 2.06639 29.9999 4.61538V8.07692C29.9999 8.71418 29.4833 9.23077 28.8461 9.23077C28.2088 9.23077 27.6922 8.71418 27.6922 8.07692V4.61538C27.6922 3.34087 26.6591 2.30769 25.3845 2.30769H21.923C21.2858 2.30769 20.7692 1.7911 20.7692 1.15385Z" fill="#565656"/>
</svg>
