<svg width="30" height="30" viewBox="0 0 30 30" fill="none" xmlns="http://www.w3.org/2000/svg">
<path fill-rule="evenodd" clip-rule="evenodd" d="M15 30C23.2842 30 30 23.2842 30 15C30 6.71572 23.2842 0 15 0C6.71572 0 0 6.71572 0 15C0 23.2842 6.71572 30 15 30ZM11.341 9.75C10.9016 9.31067 10.1893 9.31067 9.74999 9.75C9.31064 10.1894 9.31064 10.9017 9.74999 11.341L13.409 15L9.74999 18.6589C9.31064 19.0983 9.31064 19.8106 9.74999 20.25C10.1893 20.6894 10.9016 20.6894 11.341 20.25L15 16.5911L18.659 20.25C19.0983 20.6894 19.8107 20.6894 20.25 20.25C20.6892 19.8106 20.6892 19.0983 20.25 18.6589L16.5909 15L20.25 11.341C20.6894 10.9017 20.6894 10.1894 20.25 9.75C19.8107 9.31067 19.0983 9.31067 18.659 9.75L15 13.4089L11.341 9.75Z" fill="#565656"/>
</svg>
