<svg width="30" height="30" viewBox="0 0 30 30" fill="none" xmlns="http://www.w3.org/2000/svg">
<path d="M30 15C30 12.8904 28.4668 11.1311 26.4568 10.7786L26.085 9.88393C27.2582 8.2125 27.0975 5.88643 25.6061 4.39393C24.1639 2.95179 21.75 2.76429 20.115 3.91393L19.2204 3.54321C18.8679 1.53321 17.1096 0 15 0C12.8904 0 11.1311 1.53321 10.7786 3.54321L9.88393 3.91393C8.21464 2.74286 5.88643 2.90143 4.39393 4.39393C3.58393 5.20286 3.13821 6.27964 3.13821 7.425C3.13821 8.3175 3.40929 9.16928 3.91393 9.885L3.54321 10.7786C1.53214 11.1311 0 12.8904 0 15C0 17.1107 1.53321 18.8689 3.54321 19.2214L3.91393 20.115C2.74179 21.7875 2.90143 24.1136 4.39393 25.6061C5.83393 27.0471 8.25214 27.2357 9.885 26.0861L10.7796 26.4568C11.1321 28.4668 12.8914 30 15.0011 30C17.1118 30 18.87 28.4668 19.2214 26.4568L20.1161 26.085C21.7864 27.2582 24.1125 27.0996 25.6071 25.6061C26.4171 24.7961 26.8629 23.7204 26.8629 22.575C26.8629 21.6825 26.5907 20.8307 26.0871 20.115L26.4579 19.2214C28.4668 18.87 30 17.1118 30 15ZM25.7143 17.145C25.2814 17.145 24.8904 17.4054 24.7243 17.8061L23.8586 19.8932C23.6925 20.2939 23.7846 20.7546 24.0911 21.0611C24.4961 21.4661 24.7189 22.0039 24.7189 22.5761C24.7189 23.1493 24.4961 23.6871 24.0911 24.0921C23.2554 24.9279 21.8936 24.9257 21.06 24.0921C20.7536 23.7857 20.2929 23.6936 19.8921 23.8596L17.8039 24.7254C17.4032 24.8914 17.1429 25.2825 17.1429 25.7154C17.1429 26.8971 16.1818 27.8582 15 27.8582C13.8182 27.8582 12.8571 26.8971 12.8571 25.7154C12.8571 25.2825 12.5957 24.8904 12.1961 24.7254L10.1068 23.8596C9.705 23.6936 9.24643 23.7857 8.93893 24.0921C8.12893 24.9021 6.71893 24.9021 5.90893 24.0921C5.07321 23.2564 5.07321 21.8968 5.90893 21.0611C6.21536 20.7546 6.3075 20.2939 6.14143 19.8932L5.27571 17.8061C5.10964 17.4054 4.71857 17.145 4.28571 17.145C3.10393 17.145 2.14286 16.1839 2.14286 15.0011C2.14286 13.8193 3.10393 12.8582 4.28571 12.8582C4.71857 12.8582 5.10964 12.5968 5.27571 12.1971L6.14143 10.1079C6.3075 9.70714 6.21536 9.24643 5.90893 8.94C5.50393 8.535 5.28107 7.99714 5.28107 7.425C5.28107 6.85286 5.50393 6.31393 5.90893 5.90893C6.74464 5.07321 8.10429 5.07321 8.94 5.90893C9.24643 6.21536 9.70714 6.30536 10.1079 6.14143L12.1961 5.27571C12.5957 5.10964 12.8571 4.71857 12.8571 4.28571C12.8571 3.10393 13.8182 2.14286 15 2.14286C16.1818 2.14286 17.1429 3.10393 17.1429 4.28571C17.1429 4.71857 17.4043 5.10964 17.8039 5.27571L19.8932 6.14143C20.2939 6.30643 20.7546 6.21643 21.0611 5.90893C21.8711 5.09893 23.2811 5.09893 24.0911 5.90893C24.9257 6.74464 24.9257 8.10429 24.0911 8.94C23.7846 9.24643 23.6925 9.70714 23.8586 10.1079L24.7243 12.1971C24.8893 12.5957 25.2814 12.8571 25.7143 12.8571C26.8961 12.8571 27.8571 13.8182 27.8571 15C27.8571 16.1829 26.8961 17.145 25.7143 17.145Z" fill="#565656"/>
<path d="M15 9.64258C12.046 9.64258 9.64282 12.0458 9.64282 14.9997C9.64282 17.9536 12.046 20.3569 15 20.3569C15.5914 20.3569 16.0714 19.8779 16.0714 19.2854C16.0714 18.6929 15.5914 18.214 15 18.214C13.2278 18.214 11.7857 16.7719 11.7857 14.9997C11.7857 13.2276 13.2278 11.7854 15 11.7854C16.7721 11.7854 18.2143 13.2276 18.2143 14.9997C18.2143 15.6233 18.0364 16.2276 17.6989 16.7483C17.3764 17.2444 17.5178 17.9076 18.015 18.2301C18.511 18.5526 19.1743 18.4122 19.4968 17.914C20.0593 17.0461 20.3571 16.0379 20.3571 14.9997C20.3571 12.0458 17.9539 9.64258 15 9.64258Z" fill="#565656"/>
</svg>
