<svg width="42" height="42" viewBox="0 0 42 42" fill="none" xmlns="http://www.w3.org/2000/svg">
<path d="M10.0893 17.1678C7.69922 17.455 5.21718 16.6852 3.37863 14.8466C0.207124 11.6751 0.207124 6.55013 3.37863 3.37863C6.55013 0.207124 11.6751 0.207124 14.8466 3.37863C16.7081 5.24016 17.478 7.80265 17.1448 10.2272" stroke="white" stroke-width="1.5" stroke-linecap="round" stroke-linejoin="round"/>
<path d="M17.1678 31.9106C17.455 34.3008 16.6851 36.7828 14.8466 38.6214C11.6751 41.7929 6.55013 41.7929 3.37863 38.6214C0.207124 35.4499 0.207124 30.3134 3.37863 27.1534C5.24016 25.2919 7.80264 24.522 10.2272 24.8552" stroke="white" stroke-width="1.5" stroke-linecap="round" stroke-linejoin="round"/>
<path d="M31.9103 24.8321C34.3004 24.5448 36.7824 25.3147 38.621 27.1418C41.7925 30.3133 41.7925 35.4383 38.621 38.6098C35.4495 41.7813 30.313 41.7813 27.153 38.6098C25.2915 36.7482 24.5216 34.1857 24.8548 31.7611" stroke="white" stroke-width="1.5" stroke-linecap="round" stroke-linejoin="round"/>
<path d="M24.832 10.1007C24.5447 7.71057 25.3146 5.22853 27.1417 3.38998C30.3132 0.218477 35.4381 0.218477 38.6096 3.38998C41.7811 6.56148 41.7811 11.6864 38.6096 14.8579C36.7481 16.7195 34.1856 17.4894 31.761 17.1561" stroke="white" stroke-width="1.5" stroke-linecap="round" stroke-linejoin="round"/>
<path d="M13.7552 29.6929C17.8 25.6481 24.3613 25.6481 28.4061 29.6929L29.7506 28.2221C25.7058 24.1773 25.7058 17.6159 29.7506 13.5711L28.3027 12.2496C24.2579 16.2944 17.6966 16.2944 13.6518 12.2496L12.3073 13.7205C16.3521 17.7653 16.3521 24.3266 12.3073 28.3714L13.7552 29.6929Z" stroke="white" stroke-width="1.5" stroke-linecap="round" stroke-linejoin="round"/>
<path d="M6.3548 11.8819L11.882 6.36621" stroke="white" stroke-width="1.5" stroke-linecap="round" stroke-linejoin="round"/>
<path d="M9.95158 9.1241C9.95158 9.58374 9.58386 9.95145 9.12423 9.95145C8.66459 9.95145 8.29688 9.58374 8.29688 9.1241C8.29688 8.66446 8.66459 8.29675 9.12423 8.29675C9.58386 8.29675 9.95158 8.66446 9.95158 9.1241Z" stroke="white" stroke-width="1.5" stroke-linecap="round" stroke-linejoin="round"/>
<path d="M9.12423 32.0487C9.58386 32.0487 9.95158 32.4164 9.95158 32.8761C9.95158 33.3357 9.58386 33.7034 9.12423 33.7034C8.66459 33.7034 8.29688 33.3357 8.29688 32.8761C8.29688 32.4164 8.66459 32.0487 9.12423 32.0487Z" stroke="white" stroke-width="1.5" stroke-linecap="round" stroke-linejoin="round"/>
<path d="M32.0482 32.8873C32.0482 32.4276 32.4159 32.0599 32.8755 32.0599C33.3351 32.0599 33.7029 32.4276 33.7029 32.8873C33.7029 33.3469 33.3351 33.7146 32.8755 33.7146C32.4159 33.7146 32.0482 33.3469 32.0482 32.8873Z" stroke="white" stroke-width="1.5" stroke-linecap="round" stroke-linejoin="round"/>
<path d="M32.8755 9.95145C33.3324 9.95145 33.7029 9.58104 33.7029 9.1241C33.7029 8.66717 33.3324 8.29675 32.8755 8.29675C32.4186 8.29675 32.0482 8.66717 32.0482 9.1241C32.0482 9.58104 32.4186 9.95145 32.8755 9.95145Z" stroke="white" stroke-width="1.5" stroke-linecap="round" stroke-linejoin="round"/>
<path d="M11.882 35.6452L6.3548 30.118" stroke="white" stroke-width="1.5" stroke-linecap="round" stroke-linejoin="round"/>
<path d="M35.645 30.118L30.1179 35.6452" stroke="white" stroke-width="1.5" stroke-linecap="round" stroke-linejoin="round"/>
<path d="M30.1179 6.36621L35.645 11.8819" stroke="white" stroke-width="1.5" stroke-linecap="round" stroke-linejoin="round"/>
</svg>
