<svg width="18" height="20" viewBox="0 0 18 20" fill="none" xmlns="http://www.w3.org/2000/svg">
<path d="M17.1285 4.48366C14.8409 2.32397 12.9748 1 9.58051 1C6.18616 1 3.15896 1.74336 0.871338 3.90305" stroke="white" stroke-width="1.5" stroke-linecap="round" stroke-linejoin="round"/>
<path d="M17.1285 13.7741C17.1285 9.28477 13.4892 5.64551 8.99988 5.64551C4.51061 5.64551 0.871338 9.28477 0.871338 13.7741C0.871338 15.7639 1.58628 17.5867 2.77328 18.9995" stroke="white" stroke-width="1.5" stroke-linecap="round" stroke-linejoin="round"/>
<path d="M7.25801 18.7473C6.20502 17.9079 5.51611 16.5133 5.51611 14.9348C5.51611 12.3696 7.33574 10.29 9.58041 10.29C11.286 10.29 12.7464 11.4908 13.3492 13.1931" stroke="white" stroke-width="1.5" stroke-linecap="round" stroke-linejoin="round"/>
<path d="M10.1614 14.9355C10.1614 16.0967 10.8581 18.5353 13.645 18.9997" stroke="white" stroke-width="1.5" stroke-linecap="round" stroke-linejoin="round"/>
</svg>
