<svg width="30" height="30" viewBox="0 0 30 30" fill="none" xmlns="http://www.w3.org/2000/svg">
<rect width="30" height="30" rx="5" fill="#565656"/>
<path d="M13.6667 21.6667C13.6667 22.403 14.2635 23 15.0001 23C15.7364 23 16.3334 22.403 16.3334 21.6667V16.3333H21.6667C22.4031 16.3333 23.0001 15.7364 23.0001 15C23.0001 14.2636 22.4031 13.6667 21.6667 13.6667H16.3334V8.33333C16.3334 7.59696 15.7364 7 15.0001 7C14.2635 7 13.6667 7.59696 13.6667 8.33333V13.6667H8.33333C7.59694 13.6667 7 14.2636 7 15C7 15.7364 7.59694 16.3333 8.33333 16.3333H13.6667V21.6667Z" fill="white"/>
</svg>
