<svg width="97" height="30" viewBox="0 0 97 30" fill="none" xmlns="http://www.w3.org/2000/svg">
<g clip-path="url(#clip0_384_4707)">
<mask id="mask0_384_4707" style="mask-type:luminance" maskUnits="userSpaceOnUse" x="0" y="0" width="97" height="30">
<path d="M0 0H96.6667V30H0V0Z" fill="white"/>
</mask>
<g mask="url(#mask0_384_4707)">
<path d="M34.6646 10.7487L33.556 12.8101C32.5286 12.2407 31.3126 11.9054 30.4233 11.9054C29.95 11.9061 29.5453 12.0967 29.5453 12.5434C29.5453 12.8507 29.7113 12.9621 30.9253 13.2834C33.23 13.8954 34.872 14.4901 34.872 16.5254C34.872 18.5807 33.2786 19.7134 30.7546 19.7101C28.928 19.7101 27.272 19.2421 25.928 18.3567L27.1133 16.3854C28.272 17.1027 29.5826 17.4587 30.7353 17.4601C31.2506 17.4607 31.7046 17.2754 31.7046 16.8334C31.7046 16.3141 31.4093 16.2841 30.174 15.9561C27.9566 15.3574 26.356 14.8081 26.356 12.8321C26.356 10.6541 28.1466 9.65872 30.4386 9.65738C31.9986 9.65738 33.5133 10.0574 34.6646 10.7487ZM42.5806 9.85072V12.4294H40.1966V15.7474C40.1966 16.5741 40.772 16.9627 41.4766 16.9627C41.9 16.9627 42.3833 16.8107 42.7713 16.5881L43.198 18.8961C42.216 19.4181 41.152 19.6934 40.1566 19.7101C38.3166 19.7267 36.7766 18.6481 36.7766 16.3407V12.4294H35.51V9.85072H36.7766V7.35205H40.1973V9.85072H42.5806ZM47.7493 15.4914C47.7493 16.4514 48.3026 16.9627 49.126 16.9627C49.9123 16.9646 50.6751 16.6947 51.2853 16.1987V9.85072H54.706V19.5174H51.2853V18.4587C50.2433 19.2654 48.944 19.7101 47.7406 19.7101C45.8553 19.7101 44.3293 18.6954 44.3293 16.5174V9.85072H47.7493V15.4914ZM59.7266 13.5814V15.7841C59.91 16.1001 60.1733 16.3627 60.49 16.5454C60.8075 16.7287 61.1673 16.8262 61.534 16.8281C62.6966 16.8281 63.6526 15.8694 63.6526 14.6834C63.6526 13.4974 62.6966 12.5394 61.534 12.5394C61.1673 12.5414 60.8073 12.6387 60.4906 12.8214C60.174 13.0037 59.9106 13.2657 59.7266 13.5814ZM67.024 14.6834C67.024 17.4681 65.454 19.7101 62.7973 19.7101C61.6093 19.7101 60.522 19.1901 59.7266 18.3327V23.2861H56.3066V9.85072H59.7273V11.0354C60.5307 10.1787 61.6086 9.65738 62.7986 9.65738C65.4546 9.65738 67.0247 11.8987 67.0247 14.6841L67.024 14.6834ZM71.502 14.6834C71.502 15.2514 71.7286 15.7961 72.132 16.1981C72.5367 16.6005 73.0839 16.8269 73.6546 16.8281C74.2256 16.8271 74.7731 16.6007 75.178 16.1981C75.3776 15.9996 75.536 15.7637 75.6441 15.5038C75.7522 15.2439 75.8078 14.9652 75.8078 14.6837C75.8078 14.4022 75.7522 14.1236 75.6441 13.8637C75.536 13.6038 75.3776 13.3678 75.178 13.1694C74.773 12.7669 74.2256 12.5405 73.6546 12.5394C73.084 12.5408 72.5368 12.7672 72.132 13.1694C71.9325 13.3678 71.7741 13.6037 71.666 13.8636C71.5579 14.1234 71.5022 14.402 71.502 14.6834ZM79.2086 14.6834C79.2086 17.4681 76.7253 19.7101 73.6793 19.7101C70.6326 19.7101 68.1493 17.4681 68.1493 14.6834C68.1493 11.9001 70.6326 9.65738 73.6793 9.65738C76.7253 9.65738 79.2086 11.8987 79.2086 14.6834ZM87.2686 12.4047C86.0273 12.4047 84.8493 13.0207 83.9246 14.1247V19.5167H80.5033V9.85072H83.9246V11.6321C84.8846 10.3587 86.1193 9.65872 87.2686 9.65872V12.4047Z" fill="white"/>
<path d="M23.036 20.6267L13.0473 26.3673L3.15933 20.6833V9.316L13.0467 3.632L23.0353 9.37333L26.1947 7.55733L13.0473 0L0.05 7.47133L0 7.49933V22.5L13.0473 30L26.1953 22.438L23.036 20.626V20.6267Z" fill="white"/>
<path d="M13.048 6.67065L5.80267 10.8353L8.708 12.506L13.048 10.0113L17.3867 12.5067V17.4947L13.0473 19.988L8.70733 17.4947L5.802 19.1647L13.0473 23.3293L20.292 19.1647V10.8353L13.048 6.67065Z" fill="white"/>
<path d="M93.1933 6.66672L91.9314 4.96672H91.1194V6.66672H90.4073V2.26672H92.0253C92.3207 2.26672 92.5827 2.32472 92.8107 2.44006C93.0394 2.55139 93.2153 2.70872 93.3413 2.91339C93.466 3.11806 93.5294 3.35139 93.5294 3.61339C93.5294 3.90206 93.4527 4.15539 93.3007 4.37339C93.1464 4.59314 92.9287 4.76059 92.6767 4.85339L94.006 6.66672H93.1933ZM91.1194 4.34006H92.012C92.2574 4.34006 92.45 4.27339 92.5894 4.14006C92.7274 4.00672 92.7974 3.83339 92.7974 3.62006C92.7974 3.40206 92.7274 3.22672 92.5894 3.09339C92.45 2.96006 92.2574 2.89339 92.012 2.89339H91.1194V4.34006Z" fill="white"/>
<path d="M96.3313 4.66671C96.3313 2.27337 94.3773 0.333374 91.9673 0.333374C89.558 0.333374 87.604 2.27337 87.604 4.66671C87.604 7.06004 89.558 9.00004 91.9673 9.00004C94.3773 9.00004 96.3313 7.06004 96.3313 4.66671Z" stroke="white"/>
</g>
</g>
<defs>
<clipPath id="clip0_384_4707">
<rect width="96.6667" height="30" fill="white"/>
</clipPath>
</defs>
</svg>
