<svg width="34" height="24" viewBox="0 0 34 24" fill="none" xmlns="http://www.w3.org/2000/svg">
<path d="M5.35507 1C-0.451691 6.80676 -0.451691 16.5266 5.35507 22.3333M10.9541 4.55556C7.16345 8.34621 7.16345 14.9871 10.9541 18.7778M28.6449 22.3333C34.4517 16.5266 34.4517 6.80676 28.6449 1M23.0459 18.7778C26.8366 14.9871 26.8366 8.34621 23.0459 4.55556" stroke="white" stroke-width="2" stroke-linecap="round"/>
<path d="M17 13.4445C17.9818 13.4445 18.7778 12.6485 18.7778 11.6667C18.7778 10.6849 17.9818 9.88892 17 9.88892C16.0182 9.88892 15.2222 10.6849 15.2222 11.6667C15.2222 12.6485 16.0182 13.4445 17 13.4445Z" stroke="white" stroke-width="2" stroke-linecap="round"/>
</svg>
