<svg width="28" height="28" viewBox="0 0 28 28" fill="none" xmlns="http://www.w3.org/2000/svg">
<path d="M27.9999 1.4141L26.5858 0L13.293 13.293C13.1108 13.4816 13.01 13.7342 13.0123 13.9964C13.0146 14.2586 13.1197 14.5094 13.3051 14.6948C13.4906 14.8802 13.7414 14.9854 14.0036 14.9876C14.2658 14.9899 14.5184 14.8891 14.707 14.707L18.8869 10.5278C19.6643 11.6241 20.0507 12.9498 19.9842 14.292C19.9178 15.6343 19.4023 16.9153 18.5205 17.9295C17.6387 18.9437 16.4417 19.6322 15.1217 19.8845C13.8017 20.1368 12.4351 19.9384 11.2415 19.3209C10.0478 18.7035 9.09613 17.7029 8.53929 16.4798C7.98244 15.2566 7.85269 13.8819 8.17085 12.5762C8.489 11.2705 9.23662 10.1095 10.2937 9.27962C11.3508 8.44974 12.656 7.99909 14 7.99998V5.99998C12.1891 5.9975 10.4308 6.60862 9.01189 7.73367C7.59293 8.85873 6.59701 10.4313 6.18654 12.1951C5.77606 13.9588 5.97525 15.8095 6.75162 17.4455C7.52799 19.0815 8.83574 20.4062 10.4616 21.2035C12.0874 22.0009 13.9355 22.2239 15.7043 21.8361C17.4732 21.4484 19.0585 20.4728 20.2017 19.0684C21.3449 17.664 21.9786 15.9138 21.9994 14.103C22.0203 12.2923 21.427 10.5279 20.3163 9.09767L23.163 6.25098C25.0041 8.41207 26.0105 11.161 25.9999 14C25.9999 16.3733 25.2961 18.6934 23.9776 20.6668C22.659 22.6402 20.7849 24.1782 18.5922 25.0865C16.3994 25.9947 13.9867 26.2324 11.6589 25.7693C9.33112 25.3063 7.19293 24.1634 5.51471 22.4852C3.83648 20.807 2.6936 18.6688 2.23058 16.341C1.76756 14.0133 2.00519 11.6005 2.91344 9.40777C3.82169 7.21506 5.35976 5.34093 7.33314 4.02235C9.30653 2.70378 11.6266 1.99999 14 1.99999V0C11.231 0 8.52429 0.821083 6.222 2.35942C3.91972 3.89775 2.12531 6.08425 1.06569 8.64241C0.00606595 11.2006 -0.27118 14.0155 0.269012 16.7312C0.809203 19.4469 2.14257 21.9415 4.1005 23.8994C6.05843 25.8574 8.55298 27.1907 11.2687 27.7309C13.9844 28.2711 16.7994 27.9939 19.3575 26.9342C21.9157 25.8746 24.1022 24.0802 25.6405 21.7779C27.1788 19.4756 27.9999 16.7689 27.9999 14C28.011 10.631 26.7943 7.37332 24.5775 4.83639L27.9999 1.4141Z" fill="white"/>
</svg>
