<svg width="32" height="32" viewBox="0 0 32 32" fill="none" xmlns="http://www.w3.org/2000/svg">
<path d="M3.45326 13.8493C2.43031 13.8493 1.60093 14.6787 1.60093 15.702C1.60093 16.7249 2.43031 17.5543 3.45326 17.5543C4.47659 17.5543 5.30597 16.7249 5.30597 15.702C5.30597 14.6787 4.47659 13.8493 3.45326 13.8493ZM12.0837 26.0001C13.0588 26.3949 12.4581 27.8775 11.4834 27.4823C7.75595 25.9708 4.82091 22.932 3.44054 19.1553C1.53847 19.1483 0 17.6041 0 15.702C0 14.0795 1.13129 12.6744 2.71179 12.3282C3.66918 5.27551 9.71817 0 16.8391 0C20.0066 0 23.062 1.04338 25.5648 2.98324C26.083 2.67362 26.6883 2.49509 27.3357 2.49509C29.2432 2.49509 30.7894 4.04166 30.7894 5.94874C30.7894 6.88184 30.4192 7.72858 29.8177 8.35013C30.6625 10.2013 31.1013 12.2271 31.1013 14.2622C31.1013 17.4128 30.0618 20.4647 28.1393 22.959L30.2376 24.7693C30.6822 25.1545 30.5677 25.8663 30.0417 26.1015L18.7145 31.9118C18.2021 32.1736 17.5971 31.822 17.5566 31.2598L16.0448 14.3309C15.9827 13.6129 16.8267 13.1973 17.3604 13.6592L19.3685 15.3908C19.5285 15.0342 19.6052 14.6528 19.6052 14.2622C19.6052 12.7346 18.3667 11.4961 16.8391 11.4961C15.311 11.4961 14.0729 12.7342 14.0729 14.2622C14.0729 15.3897 14.7542 16.4034 15.7999 16.8275C16.7747 17.2223 16.1743 18.7045 15.1992 18.3097C13.552 17.6415 12.472 16.0402 12.472 14.2622C12.472 11.8504 14.4273 9.89477 16.8391 9.89477C19.2509 9.89477 21.2062 11.8504 21.2062 14.2622C21.2062 15.0319 20.9972 15.7969 20.6093 16.4612L26.9289 21.9145C28.6101 19.7024 29.5 17.0415 29.5 14.2622C29.5 12.5171 29.1545 10.8159 28.4585 9.21576C28.1065 9.33683 27.7286 9.40238 27.3357 9.40238C25.4286 9.40238 23.8821 7.8562 23.8821 5.94874C23.8821 5.27397 24.076 4.64432 24.4103 4.1126C22.216 2.47311 19.579 1.60093 16.8391 1.60093C10.5826 1.60093 5.24968 6.17237 4.31773 12.3575C5.83846 12.7496 6.9069 14.1257 6.9069 15.702C6.9069 17.0103 6.17045 18.199 5.00869 18.7863C6.26106 22.0591 8.83519 24.6826 12.0837 26.0001ZM27.3357 4.09602C26.3124 4.09602 25.483 4.92579 25.483 5.94874C25.483 6.97207 26.3128 7.80145 27.3357 7.80145C28.3591 7.80145 29.1884 6.97207 29.1884 5.94874C29.1884 4.92579 28.3591 4.09602 27.3357 4.09602ZM28.2981 25.2042C24.8013 22.1871 21.3049 19.1699 17.808 16.1527L19.0404 29.9527L28.2981 25.2042Z" fill="white"/>
</svg>
