<svg width="32" height="22" viewBox="0 0 32 22" fill="none" xmlns="http://www.w3.org/2000/svg">
<path d="M30 1H29.113C28.588 1 28.084 1.207 27.709 1.576L25 4.248V3C25 1.343 23.656 0 22 0H3C1.346 0 0 1.345 0 3V9.972V19C0 20.656 1.343 22 3 22H22C23.656 22 25 20.656 25 19V17.779L27.709 20.451C28.084 20.82 28.588 21.027 29.113 21.027H30C31.104 21.027 32 20.132 32 19.027V3C32 1.895 31.104 1 30 1ZM3 20C2.448 20 2 19.551 2 19V3C2 2.447 2.447 2 3 2H22C22.551 2 23 2.448 23 3V19C23 19.551 22.551 20 22 20H3ZM30 19.027H29.113H29L25 15.027V15L24 14V8L29 3H29.113H30V19.027Z" fill="white"/>
</svg>
