<svg width="32" height="32" viewBox="0 0 32 32" fill="none" xmlns="http://www.w3.org/2000/svg">
<path d="M32 16C32 13.7497 30.3646 11.8731 28.2206 11.4971L27.824 10.5429C29.0754 8.76 28.904 6.27886 27.3131 4.68686C25.7749 3.14857 23.2 2.94857 21.456 4.17486L20.5017 3.77943C20.1257 1.63543 18.2503 0 16 0C13.7497 0 11.8731 1.63543 11.4971 3.77943L10.5429 4.17486C8.76229 2.92571 6.27886 3.09486 4.68686 4.68686C3.82286 5.54971 3.34743 6.69829 3.34743 7.92C3.34743 8.872 3.63657 9.78057 4.17486 10.544L3.77943 11.4971C1.63429 11.8731 0 13.7497 0 16C0 18.2514 1.63543 20.1269 3.77943 20.5029L4.17486 21.456C2.92457 23.24 3.09486 25.7211 4.68686 27.3131C6.22286 28.8503 8.80229 29.0514 10.544 27.8251L11.4983 28.2206C11.8743 30.3646 13.7509 32 16.0011 32C18.2526 32 20.128 30.3646 20.5029 28.2206L21.4571 27.824C23.2389 29.0754 25.72 28.9063 27.3143 27.3131C28.1783 26.4491 28.6537 25.3017 28.6537 24.08C28.6537 23.128 28.3634 22.2194 27.8263 21.456L28.2217 20.5029C30.3646 20.128 32 18.2526 32 16ZM27.4286 18.288C26.9669 18.288 26.5497 18.5657 26.3726 18.9931L25.4491 21.2194C25.272 21.6469 25.3703 22.1383 25.6971 22.4651C26.1291 22.8971 26.3669 23.4709 26.3669 24.0811C26.3669 24.6926 26.1291 25.2663 25.6971 25.6983C24.8057 26.5897 23.3531 26.5874 22.464 25.6983C22.1371 25.3714 21.6457 25.2731 21.2183 25.4503L18.9909 26.3737C18.5634 26.5509 18.2857 26.968 18.2857 27.4297C18.2857 28.6903 17.2606 29.7154 16 29.7154C14.7394 29.7154 13.7143 28.6903 13.7143 27.4297C13.7143 26.968 13.4354 26.5497 13.0091 26.3737L10.7806 25.4503C10.352 25.2731 9.86286 25.3714 9.53486 25.6983C8.67086 26.5623 7.16686 26.5623 6.30286 25.6983C5.41143 24.8069 5.41143 23.3566 6.30286 22.4651C6.62971 22.1383 6.728 21.6469 6.55086 21.2194L5.62743 18.9931C5.45029 18.5657 5.03314 18.288 4.57143 18.288C3.31086 18.288 2.28571 17.2629 2.28571 16.0011C2.28571 14.7406 3.31086 13.7154 4.57143 13.7154C5.03314 13.7154 5.45029 13.4366 5.62743 13.0103L6.55086 10.7817C6.728 10.3543 6.62971 9.86286 6.30286 9.536C5.87086 9.104 5.63314 8.53029 5.63314 7.92C5.63314 7.30971 5.87086 6.73486 6.30286 6.30286C7.19429 5.41143 8.64457 5.41143 9.536 6.30286C9.86286 6.62971 10.3543 6.72571 10.7817 6.55086L13.0091 5.62743C13.4354 5.45029 13.7143 5.03314 13.7143 4.57143C13.7143 3.31086 14.7394 2.28571 16 2.28571C17.2606 2.28571 18.2857 3.31086 18.2857 4.57143C18.2857 5.03314 18.5646 5.45029 18.9909 5.62743L21.2194 6.55086C21.6469 6.72686 22.1383 6.63086 22.4651 6.30286C23.3291 5.43886 24.8331 5.43886 25.6971 6.30286C26.5874 7.19429 26.5874 8.64457 25.6971 9.536C25.3703 9.86286 25.272 10.3543 25.4491 10.7817L26.3726 13.0103C26.5486 13.4354 26.9669 13.7143 27.4286 13.7143C28.6891 13.7143 29.7143 14.7394 29.7143 16C29.7143 17.2617 28.6891 18.288 27.4286 18.288Z" fill="white"/>
<path d="M16 10.2857C12.8491 10.2857 10.2857 12.8491 10.2857 16C10.2857 19.1508 12.8491 21.7143 16 21.7143C16.6308 21.7143 17.1428 21.2034 17.1428 20.5714C17.1428 19.9394 16.6308 19.4286 16 19.4286C14.1097 19.4286 12.5714 17.8903 12.5714 16C12.5714 14.1097 14.1097 12.5714 16 12.5714C17.8903 12.5714 19.4286 14.1097 19.4286 16C19.4286 16.6651 19.2388 17.3097 18.8788 17.8651C18.5348 18.3943 18.6857 19.1017 19.216 19.4457C19.7451 19.7897 20.4526 19.64 20.7966 19.1086C21.3966 18.1828 21.7143 17.1074 21.7143 16C21.7143 12.8491 19.1508 10.2857 16 10.2857Z" fill="white"/>
</svg>
