<svg width="74" height="82" viewBox="0 0 74 82" fill="none" xmlns="http://www.w3.org/2000/svg">
<path d="M31.7033 1.39228C34.9186 -0.464093 38.88 -0.464093 42.0954 1.39228L68.6026 16.6962C71.8179 18.5526 73.7986 21.9833 73.7986 25.6961V56.3039C73.7986 60.0167 71.8179 63.4474 68.6026 65.3038L42.0954 80.6077C38.88 82.4641 34.9186 82.4641 31.7033 80.6077L5.19606 65.3038C1.98072 63.4474 0 60.0167 0 56.3039V25.6961C0 21.9833 1.98073 18.5526 5.19606 16.6962L31.7033 1.39228Z" fill="#F11D36" fill-opacity="0.5"/>
<g filter="url(#filter0_b_791_4090)">
<path fill-rule="evenodd" clip-rule="evenodd" d="M5.19606 16.6962C1.98073 18.5526 0 21.9833 0 25.6961V35.4265C1.14788 35.4265 2.07842 34.4959 2.07842 33.348V25.6961C2.07842 22.7259 3.663 19.9813 6.23527 18.4962L12.8621 14.6702C13.8562 14.0963 14.1968 12.8251 13.6228 11.831L5.19606 16.6962ZM23.2765 6.25748C23.8504 7.25157 25.1216 7.59217 26.1157 7.01823L32.7425 3.19225C35.3147 1.70715 38.4839 1.70715 41.0562 3.19225L47.683 7.01823C48.6771 7.59217 49.9482 7.25157 50.5221 6.25748L42.0954 1.39228C38.8801 -0.464093 34.9186 -0.464093 31.7033 1.39228L23.2765 6.25748ZM60.1758 11.831C59.6019 12.8251 59.9425 14.0963 60.9366 14.6702L67.5634 18.4962C70.1356 19.9813 71.7202 22.7259 71.7202 25.6961V33.348C71.7202 34.4959 72.6508 35.4265 73.7986 35.4265V25.6961C73.7986 21.9833 71.8179 18.5526 68.6026 16.6962L60.1758 11.831ZM73.7986 46.5736C72.6508 46.5736 71.7202 47.5041 71.7202 48.652V56.3039C71.7202 59.2741 70.1356 62.0187 67.5634 63.5038L60.9366 67.3298C59.9425 67.9037 59.6019 69.1749 60.1758 70.169L68.6026 65.3038C71.8179 63.4474 73.7986 60.0167 73.7986 56.3039V46.5736ZM50.5221 75.7425C49.9482 74.7484 48.6771 74.4078 47.683 74.9818L41.0562 78.8078C38.4839 80.2929 35.3147 80.2929 32.7425 78.8078L26.1157 74.9818C25.1216 74.4078 23.8504 74.7484 23.2765 75.7425L31.7033 80.6077C34.9186 82.4641 38.88 82.4641 42.0954 80.6077L50.5221 75.7425ZM13.6228 70.169C14.1968 69.1749 13.8562 67.9037 12.8621 67.3298L6.23527 63.5038C3.663 62.0187 2.07842 59.2741 2.07842 56.3039V48.652C2.07842 47.5041 1.14788 46.5736 0 46.5736V56.3039C0 60.0167 1.98072 63.4474 5.19606 65.3038L13.6228 70.169Z" fill="#F11D36"/>
</g>
<path fill-rule="evenodd" clip-rule="evenodd" d="M29.965 23.2507C26.973 20.2586 22.1294 20.2601 19.1506 23.2497L19.1486 23.2517C16.1583 26.2312 16.1583 31.0748 19.1377 34.0541C20.8723 35.7887 23.2112 36.5148 25.4674 36.2436C25.8948 36.1922 26.2829 36.4971 26.3343 36.9244C26.3856 37.3518 26.0808 37.7399 25.6534 37.7913C22.9419 38.1172 20.1221 37.2431 18.0354 35.1564C14.4473 31.5683 14.447 25.7369 18.0474 22.1484C21.6365 18.5473 27.4679 18.5491 31.0673 22.1484C33.1818 24.2629 34.0546 27.1723 33.6766 29.9228C33.618 30.3493 33.2248 30.6475 32.7983 30.5889C32.3719 30.5302 32.0737 30.137 32.1323 29.7106C32.4469 27.4218 31.7196 25.0052 29.965 23.2507Z" fill="white"/>
<path fill-rule="evenodd" clip-rule="evenodd" d="M25.5973 45.7785C23.3085 45.4639 20.892 46.1912 19.1374 47.9457C16.1459 50.9372 16.1459 55.7697 19.1374 58.7611C22.1289 61.7526 26.9613 61.7526 29.9528 58.7611C31.6874 57.0265 32.4134 54.6876 32.1423 52.4314C32.0909 52.004 32.3957 51.6159 32.8231 51.5646C33.2505 51.5132 33.6386 51.818 33.6899 52.2454C34.0159 54.9569 33.1417 57.7767 31.055 59.8634C27.4548 63.4636 21.6354 63.4636 18.0351 59.8634C14.4349 56.2631 14.4349 50.4437 18.0351 46.8435C20.1496 44.729 23.059 43.8561 25.8095 44.2342C26.236 44.2928 26.5342 44.686 26.4756 45.1124C26.417 45.5389 26.0237 45.8371 25.5973 45.7785Z" fill="white"/>
<path fill-rule="evenodd" clip-rule="evenodd" d="M54.6606 47.9461C52.926 46.2115 50.587 45.4854 48.3308 45.7566C47.9034 45.808 47.5153 45.5032 47.464 45.0758C47.4126 44.6484 47.7174 44.2603 48.1448 44.2089C50.8563 43.883 53.6761 44.7571 55.7628 46.8438C59.363 50.4441 59.363 56.2635 55.7628 59.8637C52.1633 63.4633 46.3315 63.4649 42.7424 59.8632C40.6283 57.7488 39.7556 54.8396 40.1336 52.0893C40.1922 51.6629 40.5854 51.3647 41.0118 51.4233C41.4383 51.4819 41.7365 51.8751 41.6779 52.3016C41.3633 54.5904 42.0906 57.0069 43.8451 58.7615L43.8461 58.7625C46.8249 61.7521 51.6685 61.7535 54.6606 58.7615C57.652 55.77 57.652 50.9376 54.6606 47.9461Z" fill="white"/>
<path fill-rule="evenodd" clip-rule="evenodd" d="M43.8335 23.2381C46.825 20.2475 51.6568 20.2478 54.648 23.239C57.6395 26.2304 57.6395 31.0629 54.648 34.0544C52.8935 35.8089 50.4769 36.5362 48.1881 36.2216C47.7617 36.163 47.3684 36.4612 47.3098 36.8877C47.2512 37.3141 47.5494 37.7073 47.9759 37.7659C50.7264 38.144 53.6358 37.2711 55.7503 35.1566C59.3505 31.5564 59.3505 25.7369 55.7503 22.1367C52.15 18.5365 46.3306 18.5365 42.7304 22.1367L42.7304 22.1367L42.7286 22.1384C40.6554 24.2247 39.7815 27.0435 40.1074 29.7547C40.1588 30.1821 40.5469 30.4869 40.9742 30.4355C41.4016 30.3842 41.7064 29.9961 41.6551 29.5687C41.3839 27.3125 42.1099 24.973 43.8335 23.2381Z" fill="white"/>
<path fill-rule="evenodd" clip-rule="evenodd" d="M25.7561 27.4473C25.0872 26.7784 24.0136 26.7784 23.3447 27.4473C22.6758 28.1162 22.6758 29.1897 23.3447 29.8586C24.0136 30.5275 25.0872 30.5275 25.7561 29.8586C26.425 29.1897 26.425 28.1162 25.7561 27.4473ZM21.8751 25.9776C23.3557 24.497 25.7452 24.497 27.2257 25.9776C28.7063 27.4582 28.7063 29.8477 27.2257 31.3283C25.7452 32.8089 23.3557 32.8089 21.8751 31.3283C20.3945 29.8477 20.3945 27.4582 21.8751 25.9776Z" fill="white"/>
<path fill-rule="evenodd" clip-rule="evenodd" d="M25.7561 52.1416C25.0872 51.4727 24.0136 51.4727 23.3447 52.1416C22.6758 52.8105 22.6758 53.8841 23.3447 54.553C24.0136 55.2219 25.0872 55.2219 25.7561 54.553C26.425 53.8841 26.425 52.8105 25.7561 52.1416ZM21.8751 50.672C23.3557 49.1914 25.7452 49.1914 27.2257 50.672C28.7063 52.1525 28.7063 54.542 27.2257 56.0226C25.7452 57.5032 23.3557 57.5032 21.8751 56.0226C20.3945 54.542 20.3945 52.1525 21.8751 50.672Z" fill="white"/>
<path fill-rule="evenodd" clip-rule="evenodd" d="M50.4514 52.1416C49.7825 51.4727 48.709 51.4727 48.0401 52.1416C47.3712 52.8105 47.3712 53.8841 48.0401 54.553C48.709 55.2219 49.7825 55.2219 50.4514 54.553C51.1203 53.8841 51.1203 52.8105 50.4514 52.1416ZM46.5704 50.672C48.051 49.1914 50.4405 49.1914 51.9211 50.672C53.4016 52.1525 53.4016 54.542 51.9211 56.0226C50.4405 57.5032 48.051 57.5032 46.5704 56.0226C45.0898 54.542 45.0898 52.1525 46.5704 50.672Z" fill="white"/>
<path fill-rule="evenodd" clip-rule="evenodd" d="M50.4514 27.4473C49.7825 26.7784 48.709 26.7784 48.0401 27.4473C47.3712 28.1162 47.3712 29.1897 48.0401 29.8586C48.709 30.5275 49.7825 30.5275 50.4514 29.8586C51.1203 29.1897 51.1203 28.1162 50.4514 27.4473ZM46.5704 25.9776C48.051 24.497 50.4405 24.497 51.9211 25.9776C53.4016 27.4582 53.4016 29.8477 51.9211 31.3283C50.4405 32.8089 48.051 32.8089 46.5704 31.3283C45.0898 29.8477 45.0898 27.4582 46.5704 25.9776Z" fill="white"/>
<path fill-rule="evenodd" clip-rule="evenodd" d="M43.0895 32.3934C43.384 32.0999 43.8571 32.0892 44.1645 32.3692L45.502 33.5872C45.6595 33.7306 45.7514 33.9323 45.7564 34.1453C45.7614 34.3582 45.6789 34.564 45.5283 34.7146C42.095 38.1479 42.095 43.6968 45.5283 47.1302C45.8229 47.4247 45.8337 47.8988 45.553 48.2066L44.3111 49.5679C44.1676 49.7252 43.966 49.8169 43.7531 49.8218C43.5403 49.8267 43.3347 49.7443 43.1841 49.5937C39.7508 46.1604 34.2019 46.1604 30.7686 49.5937C30.4742 49.8881 30.0004 49.8992 29.6926 49.6189L28.3552 48.4008C28.1979 48.2575 28.106 48.0561 28.1008 47.8434C28.0957 47.6306 28.1778 47.4251 28.328 47.2743C31.751 43.8403 31.7498 38.2788 28.3289 34.8579C28.0343 34.5633 28.0234 34.0892 28.3042 33.7815L29.5461 32.4201C29.6895 32.263 29.8908 32.1713 30.1034 32.1662C30.3161 32.1612 30.5215 32.2433 30.6722 32.3934C34.1057 35.816 39.656 35.816 43.0895 32.3934ZM43.6445 34.004C39.7839 37.3424 34.0475 37.3575 30.1699 34.0493L29.9396 34.3017C33.2774 38.1538 33.2911 43.8985 29.9843 47.7761L30.2118 47.9833C34.0727 44.634 39.8103 44.6189 43.6882 47.9378L43.9174 47.6865C40.5688 43.8257 40.5536 38.0888 43.8719 34.2111L43.6445 34.004Z" fill="white"/>
<defs>
<filter id="filter0_b_791_4090" x="-10" y="-10" width="93.7986" height="102" filterUnits="userSpaceOnUse" color-interpolation-filters="sRGB">
<feFlood flood-opacity="0" result="BackgroundImageFix"/>
<feGaussianBlur in="BackgroundImageFix" stdDeviation="5"/>
<feComposite in2="SourceAlpha" operator="in" result="effect1_backgroundBlur_791_4090"/>
<feBlend mode="normal" in="SourceGraphic" in2="effect1_backgroundBlur_791_4090" result="shape"/>
</filter>
</defs>
</svg>
