<svg width="44" height="48" viewBox="0 0 44 48" fill="none" xmlns="http://www.w3.org/2000/svg">
<path d="M18.8529 0.814993C20.765 -0.271664 23.1207 -0.271664 25.0328 0.814993L40.7958 9.7734C42.7078 10.8601 43.8857 12.8683 43.8857 15.0416V32.9584C43.8857 35.1317 42.7078 37.1399 40.7958 38.2266L25.0328 47.185C23.1207 48.2717 20.765 48.2717 18.8529 47.185L3.08993 38.2266C1.17787 37.1399 0 35.1317 0 32.9584V15.0416C0 12.8683 1.17787 10.8601 3.08993 9.7734L18.8529 0.814993Z" fill="#00FFF0"/>
<path d="M11.4338 14.6342C6.33521 19.7328 6.33521 28.2672 11.4338 33.3659M16.3501 17.7561C13.0217 21.0845 13.0217 26.9155 16.3501 30.2439M31.8835 33.3659C36.9821 28.2672 36.9821 19.7328 31.8835 14.6342M26.9672 30.2439C30.2956 26.9155 30.2956 21.0845 26.9672 17.7561" stroke="#024A45" stroke-width="3" stroke-linecap="round"/>
</svg>
