<svg width="44" height="48" viewBox="0 0 44 48" fill="none" xmlns="http://www.w3.org/2000/svg">
<path d="M18.8529 0.814993C20.765 -0.271664 23.1207 -0.271664 25.0328 0.814993L40.7958 9.7734C42.7078 10.8601 43.8857 12.8683 43.8857 15.0416V32.9584C43.8857 35.1317 42.7078 37.1399 40.7958 38.2266L25.0328 47.185C23.1207 48.2717 20.765 48.2717 18.8529 47.185L3.08993 38.2266C1.17787 37.1399 0 35.1317 0 32.9584V15.0416C0 12.8683 1.17787 10.8601 3.08993 9.7734L18.8529 0.814993Z" fill="#00FFF0"/>
<path d="M21.661 8.78052C18.9837 8.78052 16.468 9.48176 14.2791 10.7028C14.0499 10.7658 13.8431 10.892 13.6821 11.0669C9.34554 13.7541 6.43896 18.543 6.43896 24C6.43896 32.3817 13.273 39.2195 21.661 39.2195C30.049 39.2195 36.8829 32.3817 36.8829 24C36.8829 18.5351 33.967 13.7419 29.62 11.057V11.0545C29.4655 10.8918 29.2706 10.773 29.0552 10.7102C26.8633 9.48481 24.3433 8.78052 21.661 8.78052ZM21.661 11.3171C23.5401 11.3171 25.3168 11.7353 26.9199 12.4665L25.1265 15.5431C25.0518 15.6372 24.9909 15.7415 24.9456 15.8527L23.0283 19.1399C22.5901 19.0151 22.1374 18.9269 21.661 18.9269C21.1837 18.9269 20.73 19.0147 20.2911 19.1399L18.3837 15.8676C18.3368 15.7497 18.2725 15.6395 18.193 15.5406L16.402 12.4665C18.0051 11.7353 19.7818 11.3171 21.661 11.3171ZM14.2122 13.7447L15.54 16.0237C13.1247 17.8789 11.5146 20.7346 11.5146 24C11.5146 29.5904 16.0772 34.1464 21.6634 34.1464C27.2497 34.1464 31.8098 29.5904 31.8098 24C31.8098 20.7335 30.1983 17.8761 27.782 16.0212L29.1072 13.7447C32.2789 16.0495 34.3464 19.7771 34.3464 24C34.3464 31.0078 28.6751 36.683 21.661 36.683C14.6468 36.683 8.97555 31.0078 8.97555 24C8.97555 19.7778 11.0415 16.0496 14.2122 13.7447ZM26.4195 18.3571C28.07 19.7504 29.2732 21.67 29.2732 24C29.2732 28.2186 25.8785 31.6098 21.6634 31.6098C17.4483 31.6098 14.0512 28.2186 14.0512 24C14.0512 21.6707 15.2517 19.7527 16.8999 18.3596L18.0939 20.4082C17.1661 21.3296 16.5878 22.6011 16.5878 24C16.5878 26.784 18.8729 29.0732 21.661 29.0732C24.449 29.0732 26.7341 26.784 26.7341 24C26.7341 22.5999 26.1548 21.3273 25.2255 20.4057L26.4195 18.3571ZM21.661 21.4634C22.0608 21.4634 22.4336 21.562 22.7682 21.7235C22.8746 21.8099 22.9942 21.8785 23.1225 21.9267C23.7736 22.3841 24.1975 23.1372 24.1975 24C24.1975 25.409 23.0735 26.5366 21.661 26.5366C20.2484 26.5366 19.1244 25.409 19.1244 24C19.1244 23.136 19.5492 22.3814 20.2019 21.9242C20.3273 21.8769 20.4443 21.81 20.5487 21.726C20.8846 21.563 21.2591 21.4634 21.661 21.4634Z" fill="#024A45"/>
</svg>
