<svg width="44" height="48" viewBox="0 0 44 48" fill="none" xmlns="http://www.w3.org/2000/svg">
<path d="M18.8529 0.814993C20.765 -0.271664 23.1207 -0.271664 25.0328 0.814993L40.7958 9.7734C42.7078 10.8601 43.8857 12.8683 43.8857 15.0416V32.9584C43.8857 35.1317 42.7078 37.1399 40.7958 38.2266L25.0328 47.185C23.1207 48.2717 20.765 48.2717 18.8529 47.185L3.08993 38.2266C1.17787 37.1399 0 35.1317 0 32.9584V15.0416C0 12.8683 1.17787 10.8601 3.08993 9.7734L18.8529 0.814993Z" fill="#00FFF0"/>
<path d="M35.5535 11.5831C35.9617 11.1749 35.9617 10.5131 35.5536 10.1049C35.1454 9.69674 34.4836 9.69674 34.0754 10.1049L20.9195 23.261C20.7291 23.4581 20.6237 23.7222 20.6261 23.9962C20.6285 24.2703 20.7384 24.5325 20.9322 24.7263C21.126 24.9201 21.3882 25.03 21.6623 25.0324C21.9364 25.0348 22.2004 24.9294 22.3975 24.739L23.8142 23.3226C25.358 21.7792 28.0218 22.125 27.9139 24.3053C27.8444 25.7084 27.3055 27.0474 26.3838 28.1076C25.462 29.1677 24.2109 29.8874 22.8311 30.1511C21.4512 30.4149 20.0228 30.2074 18.7751 29.562C17.5273 28.9166 16.5326 27.8707 15.9505 26.5921C15.3684 25.3136 15.2328 23.8766 15.5654 22.5117C15.8979 21.1468 16.6794 19.9333 17.7844 19.0658C18.6134 18.415 19.5884 17.9873 20.6169 17.8147C21.1867 17.719 21.6585 17.2596 21.6585 16.6819C21.6585 16.1049 21.1894 15.6302 20.6169 15.7012C19.0986 15.8894 17.6537 16.4911 16.4445 17.4498C14.9613 18.6259 13.9202 20.2697 13.4912 22.1133C13.0621 23.9569 13.2703 25.8915 14.0819 27.6016C14.8934 29.3117 16.2604 30.6964 17.9599 31.5299C19.6594 32.3634 21.5911 32.5964 23.4401 32.1911C25.2891 31.7858 26.9462 30.766 28.1412 29.298C29.3362 27.8301 29.9986 26.0005 30.0203 24.1077C30.0348 22.8493 29.7655 21.6122 29.2421 20.485C28.7876 19.5061 28.8334 18.3032 29.5966 17.54C30.4804 16.6562 31.9479 16.71 32.5677 17.7954C33.6399 19.6731 34.2102 21.811 34.202 24C34.202 26.4809 33.4664 28.906 32.0881 30.9688C30.7098 33.0316 28.7507 34.6393 26.4587 35.5887C24.1667 36.5381 21.6446 36.7865 19.2114 36.3025C16.7782 35.8185 14.5432 34.6239 12.7889 32.8696C11.0347 31.1154 9.84002 28.8803 9.35603 26.4471C8.87203 24.0139 9.12044 21.4918 10.0698 19.1998C11.0192 16.9077 12.6269 14.9487 14.6897 13.5704C16.4619 12.3862 18.5017 11.6764 20.6144 11.5C21.1897 11.4519 21.6585 10.9884 21.6585 10.4111C21.6585 9.83384 21.1899 9.36196 20.6141 9.40316C18.0874 9.58393 15.6444 10.4182 13.5283 11.8321C11.1217 13.4402 9.246 15.7257 8.13838 18.3997C7.03075 21.0738 6.74095 24.0162 7.30561 26.855C7.87027 29.6937 9.26403 32.3013 11.3107 34.3479C13.3573 36.3945 15.9648 37.7883 18.8036 38.3529C21.6423 38.9176 24.5847 38.6278 27.2588 37.5202C29.9328 36.4126 32.2183 34.5369 33.8263 32.1303C35.4344 29.7237 36.2926 26.8943 36.2926 24C36.3015 21.2986 35.5552 18.6657 34.1612 16.3888C33.4428 15.2154 33.4709 13.6657 34.4438 12.6928L35.5535 11.5831Z" fill="#024A45" stroke="#024A45"/>
</svg>
