<svg width="44" height="48" viewBox="0 0 44 48" fill="none" xmlns="http://www.w3.org/2000/svg">
<path d="M18.8529 0.814993C20.765 -0.271664 23.1207 -0.271664 25.0328 0.814993L40.7958 9.7734C42.7078 10.8601 43.8857 12.8683 43.8857 15.0416V32.9584C43.8857 35.1317 42.7078 37.1399 40.7958 38.2266L25.0328 47.185C23.1207 48.2717 20.765 48.2717 18.8529 47.185L3.08993 38.2266C1.17787 37.1399 0 35.1317 0 32.9584V15.0416C0 12.8683 1.17787 10.8601 3.08993 9.7734L18.8529 0.814993Z" fill="#00FFF0"/>
<path d="M8.1277 23.6316C7.10729 23.6316 6.27995 24.4509 6.27995 25.4617C6.27995 26.4722 7.10729 27.2915 8.1277 27.2915C9.1485 27.2915 9.97583 26.4722 9.97583 25.4617C9.97583 24.4509 9.1485 23.6316 8.1277 23.6316ZM16.7368 35.6342C17.7095 36.0243 17.1103 37.4887 16.1379 37.0983C12.4198 35.6053 9.49197 32.6036 8.11501 28.8729C6.21764 28.866 4.68298 27.3406 4.68298 25.4617C4.68298 23.859 5.81148 22.4711 7.38806 22.1291C8.34309 15.1624 14.3771 9.95123 21.4804 9.95123C24.6401 9.95123 27.6879 10.9819 30.1845 12.8981C30.7015 12.5922 31.3053 12.4159 31.9511 12.4159C33.8539 12.4159 35.3962 13.9436 35.3962 15.8274C35.3962 16.7492 35.027 17.5856 34.427 18.1995C35.2697 20.0281 35.7074 22.0293 35.7074 24.0395C35.7074 27.1517 34.6704 30.1664 32.7527 32.6303L34.8458 34.4185C35.2893 34.799 35.175 35.5021 34.6504 35.7344L23.3512 41.4739C22.8401 41.7325 22.2366 41.3851 22.1962 40.8298L20.6881 24.1073C20.6262 23.3981 21.4681 22.9876 22.0004 23.4438L24.0036 25.1544C24.1632 24.8021 24.2397 24.4254 24.2397 24.0395C24.2397 22.5305 23.0043 21.3071 21.4804 21.3071C19.9561 21.3071 18.7211 22.5301 18.7211 24.0395C18.7211 25.1532 19.4007 26.1546 20.4438 26.5735C21.4162 26.9635 20.8173 28.4276 19.8446 28.0376C18.2015 27.3776 17.1241 25.7958 17.1241 24.0395C17.1241 21.6571 19.0746 19.7253 21.4804 19.7253C23.8863 19.7253 25.8367 21.6571 25.8367 24.0395C25.8367 24.7998 25.6282 25.5554 25.2413 26.2117L31.5453 31.5985C33.2223 29.4134 34.11 26.7849 34.11 24.0395C34.11 22.3157 33.7654 20.6353 33.0711 19.0546C32.72 19.1742 32.343 19.239 31.9511 19.239C30.0487 19.239 28.506 17.7116 28.506 15.8274C28.506 15.1609 28.6995 14.5389 29.0329 14.0137C26.844 12.3942 24.2136 11.5326 21.4804 11.5326C15.2395 11.5326 9.91968 16.0483 8.99004 22.158C10.507 22.5454 11.5728 23.9047 11.5728 25.4617C11.5728 26.7541 10.8382 27.9283 9.67929 28.5084C10.9286 31.7413 13.4963 34.3328 16.7368 35.6342ZM31.9511 13.9973C30.9303 13.9973 30.103 14.817 30.103 15.8274C30.103 16.8383 30.9307 17.6575 31.9511 17.6575C32.9719 17.6575 33.7992 16.8383 33.7992 15.8274C33.7992 14.817 32.9719 13.9973 31.9511 13.9973ZM32.9111 34.8481C29.423 31.8677 25.9352 28.8874 22.447 25.907L23.6762 39.5386L32.9111 34.8481Z" fill="#024A45" stroke="#024A45"/>
</svg>
