<svg width="44" height="48" viewBox="0 0 44 48" fill="none" xmlns="http://www.w3.org/2000/svg">
<path d="M18.8529 0.814993C20.765 -0.271664 23.1207 -0.271664 25.0328 0.814993L40.7958 9.7734C42.7078 10.8601 43.8857 12.8683 43.8857 15.0416V32.9584C43.8857 35.1317 42.7078 37.1399 40.7958 38.2266L25.0328 47.185C23.1207 48.2717 20.765 48.2717 18.8529 47.185L3.08993 38.2266C1.17787 37.1399 0 35.1317 0 32.9584V15.0416C0 12.8683 1.17787 10.8601 3.08993 9.7734L18.8529 0.814993Z" fill="#00FFF0"/>
<path fill-rule="evenodd" clip-rule="evenodd" d="M22.2632 10C29.5883 10 35.5263 12.6392 35.5263 15.8947V32.1053C35.5263 35.3608 29.5883 38 22.2632 38C14.9381 38 9 35.3608 9 32.1053V15.8947C9 12.6392 14.9381 10 22.2632 10ZM32.5878 15.8261C32.5878 15.8261 32.5873 15.831 32.5834 15.841C32.5853 15.8311 32.5878 15.8261 32.5878 15.8261ZM32.3489 15.6321C32.4639 15.7528 32.525 15.8401 32.5565 15.8947C32.525 15.9494 32.4639 16.0367 32.3489 16.1574C32.026 16.4966 31.4196 16.9363 30.4446 17.3696C28.5021 18.2329 25.612 18.8421 22.2632 18.8421C18.9143 18.8421 16.0242 18.2329 14.0817 17.3696C13.1068 16.9363 12.5002 16.4966 12.1774 16.1574C12.0625 16.0367 12.0013 15.9494 11.9697 15.8947C12.0013 15.8401 12.0625 15.7528 12.1774 15.6321C12.5002 15.2928 13.1068 14.8532 14.0817 14.4199C16.0242 13.5565 18.9143 12.9474 22.2632 12.9474C25.612 12.9474 28.5021 13.5565 30.4446 14.4199C31.4196 14.8532 32.026 15.2928 32.3489 15.6321ZM11.9386 15.8261C11.9386 15.8261 11.941 15.8311 11.9429 15.841C11.939 15.831 11.9386 15.8261 11.9386 15.8261ZM11.9474 19.6001V23.9568C11.967 24.001 12.0249 24.1024 12.1774 24.2626C12.5002 24.6019 13.1068 25.0416 14.0817 25.4749C16.0242 26.3381 18.9143 26.9474 22.2632 26.9474C25.612 26.9474 28.5021 26.3381 30.4446 25.4749C31.4196 25.0416 32.026 24.6019 32.3489 24.2626C32.5014 24.1024 32.5593 24.001 32.5789 23.9568V19.6001C30.1474 20.9356 26.4297 21.7895 22.2632 21.7895C18.0967 21.7895 14.3789 20.9356 11.9474 19.6001ZM32.5789 27.7054C30.1474 29.0409 26.4297 29.8947 22.2632 29.8947C18.0967 29.8947 14.3789 29.0409 11.9474 27.7054V32.0621C11.967 32.1063 12.0249 32.2077 12.1774 32.3679C12.5002 32.7071 13.1068 33.1469 14.0817 33.5801C16.0242 34.4434 18.9143 35.0526 22.2632 35.0526C25.612 35.0526 28.5021 34.4434 30.4446 33.5801C31.4196 33.1469 32.026 32.7071 32.3489 32.3679C32.5014 32.2077 32.5593 32.1063 32.5789 32.0621V27.7054Z" fill="#024A45"/>
</svg>
