<svg width="44" height="48" viewBox="0 0 44 48" fill="none" xmlns="http://www.w3.org/2000/svg">
<path d="M18.8529 0.814993C20.765 -0.271664 23.1207 -0.271664 25.0328 0.814993L40.7958 9.7734C42.7078 10.8601 43.8857 12.8683 43.8857 15.0416V32.9584C43.8857 35.1317 42.7078 37.1399 40.7958 38.2266L25.0328 47.185C23.1207 48.2717 20.765 48.2717 18.8529 47.185L3.08993 38.2266C1.17787 37.1399 0 35.1317 0 32.9584V15.0416C0 12.8683 1.17787 10.8601 3.08993 9.7734L18.8529 0.814993Z" fill="#00FFF0"/>
<path d="M34.4633 14.9534H33.652C33.1719 14.9534 32.7109 15.1407 32.3679 15.4745L29.8901 17.8917V16.7627C29.8901 15.2637 28.6609 14.0488 27.1462 14.0488H9.76819C8.25539 14.0488 7.02429 15.2655 7.02429 16.7627V31.2372C7.02429 32.7353 8.25265 33.9512 9.76819 33.9512H27.1462C28.6609 33.9512 29.8901 32.7353 29.8901 31.2372V30.1327L32.3679 32.5499C32.7109 32.8837 33.1719 33.071 33.652 33.071H34.4633C35.4731 33.071 36.2926 32.2613 36.2926 31.2617V16.7627C36.2926 15.7631 35.4731 14.9534 34.4633 14.9534ZM9.76819 32.1419C9.26332 32.1419 8.85356 31.7357 8.85356 31.2372V16.7627C8.85356 16.2625 9.2624 15.8581 9.76819 15.8581H27.1462C27.6502 15.8581 28.0609 16.2634 28.0609 16.7627V31.2372C28.0609 31.7357 27.6502 32.1419 27.1462 32.1419H9.76819ZM34.4633 31.2617H33.5487L29.8901 27.643V27.6186V26.714V20.4878L33.5487 16.7627H34.4633V31.2617Z" fill="#024A45" stroke="#024A45"/>
</svg>
