<svg width="75" height="80" viewBox="0 0 75 80" fill="none" xmlns="http://www.w3.org/2000/svg">
<path d="M31.2521 1.6968C35.2549 -0.565601 40.1503 -0.565601 44.153 1.6968L68.1527 15.2619C72.2672 17.5875 74.8114 21.9479 74.8114 26.6741V53.3259C74.8114 58.0522 72.2672 62.4125 68.1527 64.7381L44.153 78.3032C40.1503 80.5656 35.2549 80.5656 31.2521 78.3032L7.25242 64.7381C3.13788 62.4125 0.59375 58.0522 0.59375 53.3259V26.6741C0.59375 21.9479 3.13788 17.5875 7.25242 15.2619L31.2521 1.6968Z" fill="#00FFF0"/>
<path d="M36.7267 13.5654C32.1871 13.5654 27.9214 14.7544 24.2099 16.8248C23.8213 16.9317 23.4705 17.1456 23.1976 17.4422C15.8444 21.9986 10.916 30.1188 10.916 39.3718C10.916 53.5839 22.5038 65.1783 36.7267 65.1783C50.9495 65.1783 62.5373 53.5839 62.5373 39.3718C62.5373 30.1054 57.5929 21.978 50.2221 17.4254V17.4212C49.9602 17.1453 49.6297 16.9439 49.2645 16.8374C45.5479 14.7596 41.2749 13.5654 36.7267 13.5654ZM36.7267 17.8664C39.9129 17.8664 42.9255 18.5756 45.6438 19.8154L42.6028 25.0321C42.4763 25.1917 42.373 25.3685 42.2962 25.5571L39.0452 31.1309C38.3022 30.9194 37.5346 30.7697 36.7267 30.7697C35.9174 30.7697 35.1481 30.9186 34.4039 31.1309L31.1697 25.5823C31.0902 25.3824 30.9812 25.1955 30.8463 25.0279L27.8095 19.8154C30.5278 18.5756 33.5404 17.8664 36.7267 17.8664ZM24.0965 21.9827L26.3478 25.847C22.2524 28.9927 19.5224 33.8349 19.5224 39.3718C19.5224 48.851 27.2587 56.5761 36.7309 56.5761C46.203 56.5761 53.9352 48.851 53.9352 39.3718C53.9352 33.833 51.2027 28.988 47.1055 25.8428L49.3527 21.9827C54.7306 25.8908 58.2362 32.2114 58.2362 39.3718C58.2362 51.2544 48.62 60.8772 36.7267 60.8772C24.8334 60.8772 15.2171 51.2544 15.2171 39.3718C15.2171 32.2126 18.7201 25.891 24.0965 21.9827ZM44.7954 29.8036C47.5939 32.1662 49.6341 35.421 49.6341 39.3718C49.6341 46.5249 43.8781 52.275 36.7309 52.275C29.5836 52.275 23.8234 46.5249 23.8234 39.3718C23.8234 35.4222 25.859 32.17 28.6537 29.8078L30.6783 33.2814C29.1051 34.8438 28.1245 36.9998 28.1245 39.3718C28.1245 44.0923 31.9992 47.974 36.7267 47.974C41.4541 47.974 45.3288 44.0923 45.3288 39.3718C45.3288 36.9977 44.3465 34.8399 42.7709 33.2772L44.7954 29.8036ZM36.7267 35.0707C37.4047 35.0707 38.0367 35.2379 38.6042 35.5118C38.7845 35.6583 38.9873 35.7746 39.2048 35.8562C40.3089 36.6319 41.0277 37.9088 41.0277 39.3718C41.0277 41.761 39.1218 43.6729 36.7267 43.6729C34.3315 43.6729 32.4256 41.761 32.4256 39.3718C32.4256 37.9067 33.1459 36.6273 34.2527 35.852C34.4652 35.7717 34.6637 35.6583 34.8407 35.516C35.4103 35.2395 36.0452 35.0707 36.7267 35.0707Z" fill="#024A45"/>
</svg>
