<svg width="74" height="82" viewBox="0 0 74 82" fill="none" xmlns="http://www.w3.org/2000/svg">
<path d="M31.7898 1.39228C35.0139 -0.464093 38.9861 -0.464093 42.2102 1.39228L68.7898 16.6962C72.0139 18.5526 74 21.9833 74 25.6961V56.3039C74 60.0167 72.0139 63.4474 68.7898 65.3038L42.2102 80.6077C38.9861 82.4641 35.0139 82.4641 31.7898 80.6077L5.21023 65.3038C1.98613 63.4474 0 60.0167 0 56.3039V25.6961C0 21.9833 1.98613 18.5526 5.21023 16.6962L31.7898 1.39228Z" fill="#00FFF0"/>
<path d="M57.4872 52.6281C57.4872 52.6283 57.4871 52.6285 57.4869 52.6286L38.3941 63.6295C37.467 64.1636 36.3255 64.1636 35.3985 63.6293L18.0148 53.6112C17.0855 53.0756 16.5128 52.0846 16.5128 51.0119V30.9866C16.5128 29.914 17.0854 28.923 18.0147 28.3874L35.397 18.3694C36.3241 17.8351 37.4657 17.835 38.3928 18.3693L55.988 28.5084C56.9151 29.0427 58.0566 29.0427 58.9837 28.5084L59.4881 28.2178C61.4909 27.0636 61.4909 24.1733 59.4881 23.0192L38.3942 10.8632C37.467 10.3289 36.3255 10.3289 35.3983 10.8632L10.1031 25.4408C10.0394 25.4765 10 25.5438 10 25.6168V54.7664C10 55.839 10.5727 56.83 11.5021 57.3656L35.3979 71.1365C36.3253 71.671 37.4671 71.6708 38.3944 71.1362L60.7382 58.2526C62.1859 57.4179 62.1847 55.3281 60.7359 54.495L57.4881 52.6276C57.4877 52.6274 57.4872 52.6276 57.4872 52.6281Z" fill="#024A45"/>
<path d="M38.4811 24.8382C37.5636 24.3183 36.4405 24.3182 35.5229 24.8381L26.5546 29.92C24.5497 31.056 24.5495 33.9444 26.5542 35.0808C27.4613 35.595 28.5719 35.5951 29.4791 35.0811L35.5227 31.6565C36.4404 31.1365 37.5637 31.1367 38.4813 31.6569L44.4644 35.0492C45.4041 35.5819 45.9848 36.5787 45.9848 37.6589V44.343C45.9848 45.4236 45.4036 46.4208 44.4634 46.9533L38.4791 50.343C37.562 50.8625 36.4394 50.8625 35.5222 50.3431L29.477 46.9195C28.5702 46.4059 27.4603 46.406 26.5535 46.9198C24.5487 48.0558 24.5487 50.9442 26.5535 52.0802L35.5216 57.1619C36.4391 57.6818 37.5622 57.6818 38.4797 57.1618L50.4791 50.3619C51.4191 49.8292 52 48.8323 52 47.7519V34.2481C52 33.1677 51.4191 32.1708 50.4792 31.6381L38.4811 24.8382Z" fill="#024A45"/>
</svg>
