<svg width="34" height="34" viewBox="0 0 34 34" fill="none" xmlns="http://www.w3.org/2000/svg">
<path d="M0 5C0 2.23858 2.23858 0 5 0H29C31.7614 0 34 2.23858 34 5V29C34 31.7614 31.7614 34 29 34H5C2.23858 34 0 31.7614 0 29V5Z" fill="#00FFF0"/>
<path d="M26.1658 12.3333C24.619 9.19394 21.086 7 16.9752 7C11.7771 7 7.50296 10.5082 7 15" stroke="#00353C" stroke-width="2" stroke-linecap="round" stroke-linejoin="round"/>
<path d="M21.988 12.4444H25.8004C26.4632 12.4444 27.0004 11.9072 27.0004 11.2444V8" stroke="#00353C" stroke-width="2" stroke-linecap="round" stroke-linejoin="round"/>
<path d="M7.83423 20.3334C9.38117 24.2576 12.914 27 17.0249 27C22.2231 27 26.4971 22.6148 27.0001 17" stroke="#00353C" stroke-width="2" stroke-linecap="round" stroke-linejoin="round"/>
<path d="M12.0124 20.2441H8.2C7.53726 20.2441 7 20.7815 7 21.4441V25.7997" stroke="#00353C" stroke-width="2" stroke-linecap="round" stroke-linejoin="round"/>
</svg>
