<svg width="44" height="48" viewBox="0 0 44 48" fill="none" xmlns="http://www.w3.org/2000/svg">
<path d="M14.2459 3.30459C14.384 3.54374 14.6898 3.62568 14.9289 3.48761L18.808 1.24801C20.5355 0.250665 22.6638 0.250665 24.3912 1.24801L28.2703 3.48761C28.5094 3.62568 28.8152 3.54374 28.9533 3.30459L35.8455 7.2838C35.7074 7.52294 35.7894 7.82874 36.0285 7.96681L39.9076 10.2064C41.6351 11.2038 42.6992 13.0469 42.6992 15.0416V19.5208C42.6992 19.7969 42.9231 20.0208 43.1992 20.0208V27.9792C42.9231 27.9792 42.6992 28.2031 42.6992 28.4792V32.9584C42.6992 34.9531 41.6351 36.7962 39.9076 37.7936L36.0285 40.0332C35.7894 40.1713 35.7074 40.4771 35.8455 40.7162L28.9533 44.6954C28.8152 44.4563 28.5094 44.3743 28.2703 44.5124L24.3912 46.752C22.6638 47.7493 20.5355 47.7493 18.808 46.752L14.9289 44.5124C14.6898 44.3743 14.384 44.4563 14.2459 44.6954L7.35371 40.7162C7.49178 40.4771 7.40984 40.1713 7.1707 40.0332L3.29159 37.7936C1.56415 36.7962 0.5 34.9531 0.5 32.9584V28.4792C0.5 28.2031 0.276142 27.9792 0 27.9792V20.0208C0.276142 20.0208 0.5 19.7969 0.5 19.5208V15.0416C0.5 13.0469 1.56415 11.2038 3.29159 10.2064L7.1707 7.96681C7.40984 7.82874 7.49178 7.52294 7.35371 7.2838L14.2459 3.30459Z" fill="#F11D36" fill-opacity="0.15" stroke="#F11D36" stroke-linecap="round" stroke-dasharray="12 12"/>
<path fill-rule="evenodd" clip-rule="evenodd" d="M17.7519 13.5685C16.041 11.8576 13.2719 11.8588 11.5692 13.5677L11.5676 13.5693C9.85813 15.2726 9.85813 18.0417 11.5613 19.7448C12.5532 20.7367 13.89 21.1518 15.1804 20.9967C15.531 20.9546 15.8493 21.2046 15.8914 21.5552C15.9336 21.9058 15.6835 22.2241 15.333 22.2662C13.6691 22.4662 11.9379 21.9297 10.6572 20.649C8.45462 18.4465 8.45435 14.8671 10.6643 12.6643C12.8676 10.4538 16.447 10.4553 18.656 12.6643C19.9541 13.9625 20.4896 15.7483 20.2577 17.4361C20.2096 17.786 19.887 18.0306 19.5372 17.9825C19.1874 17.9344 18.9428 17.6118 18.9909 17.262C19.1708 15.9529 18.7547 14.5714 17.7519 13.5685Z" fill="white"/>
<path fill-rule="evenodd" clip-rule="evenodd" d="M15.255 27.0161C13.9459 26.8362 12.5643 27.2523 11.5615 28.2551C9.85106 29.9656 9.85106 32.7282 11.5615 34.4386C13.2719 36.149 16.0345 36.149 17.7449 34.4386C18.7368 33.4467 19.1519 32.1099 18.9968 30.8195C18.9547 30.4689 19.2047 30.1506 19.5553 30.1084C19.9058 30.0663 20.2242 30.3163 20.2663 30.6669C20.4663 32.3308 19.9298 34.062 18.6491 35.3427C16.4393 37.5525 12.8671 37.5525 10.6573 35.3427C8.44756 33.133 8.44756 29.5608 10.6573 27.351C11.9554 26.0529 13.7413 25.5173 15.4291 25.7493C15.7789 25.7974 16.0235 26.1199 15.9755 26.4698C15.9274 26.8196 15.6048 27.0642 15.255 27.0161Z" fill="white"/>
<path fill-rule="evenodd" clip-rule="evenodd" d="M32.4383 28.2551C31.4465 27.2632 30.1097 26.8481 28.8193 27.0032C28.4687 27.0454 28.1503 26.7953 28.1082 26.4448C28.0661 26.0942 28.3161 25.7758 28.6667 25.7337C30.3306 25.5337 32.0618 26.0703 33.3425 27.351C35.5523 29.5607 35.5523 33.1329 33.3425 35.3427C31.1333 37.5519 27.5537 37.5532 25.3503 35.3423C24.0525 34.0442 23.5171 32.2586 23.7491 30.5709C23.7972 30.2211 24.1197 29.9765 24.4695 30.0246C24.8193 30.0726 25.0639 30.3952 25.0158 30.745C24.8359 32.0541 25.252 33.4357 26.2549 34.4385L26.2557 34.4394C27.9584 36.1482 30.7275 36.1494 32.4383 34.4385C34.1487 32.7281 34.1487 29.9655 32.4383 28.2551Z" fill="white"/>
<path fill-rule="evenodd" clip-rule="evenodd" d="M26.2491 13.5608C27.9596 11.8511 30.7216 11.8513 32.4318 13.5615C34.1423 15.2719 34.1423 18.0345 32.4318 19.7449C31.429 20.7478 30.0474 21.1639 28.7383 20.984C28.3885 20.9359 28.0659 21.1805 28.0179 21.5303C27.9698 21.8801 28.2144 22.2027 28.5642 22.2507C30.252 22.4827 32.0379 21.9472 33.336 20.6491C35.5458 18.4393 35.5458 14.8671 33.336 12.6573C31.1262 10.4476 27.554 10.4476 25.3442 12.6573L25.3442 12.6573L25.3428 12.6587C24.0705 13.9391 23.5341 15.6695 23.7341 17.3331C23.7762 17.6837 24.0946 17.9338 24.4451 17.8916C24.7957 17.8495 25.0458 17.5311 25.0036 17.1806C24.8485 15.8902 25.2636 14.5529 26.2491 13.5608Z" fill="white"/>
<path fill-rule="evenodd" clip-rule="evenodd" d="M15.509 15.8041C15.0363 15.3314 14.2764 15.3314 13.8037 15.8041C13.3309 16.2769 13.3309 17.0367 13.8037 17.5095C14.2764 17.9822 15.0363 17.9822 15.509 17.5095C15.9817 17.0367 15.9817 16.2769 15.509 15.8041ZM13.2009 15.2014C14.0065 14.3958 15.3061 14.3958 16.1117 15.2014C16.9174 16.007 16.9174 17.3066 16.1117 18.1122C15.3061 18.9178 14.0065 18.9178 13.2009 18.1122C12.3953 17.3066 12.3953 16.007 13.2009 15.2014Z" fill="white"/>
<path fill-rule="evenodd" clip-rule="evenodd" d="M15.509 30.4907C15.0363 30.018 14.2764 30.018 13.8037 30.4907C13.3309 30.9634 13.3309 31.7233 13.8037 32.196C14.2764 32.6687 15.0363 32.6687 15.509 32.196C15.9817 31.7233 15.9817 30.9634 15.509 30.4907ZM13.2009 29.8879C14.0065 29.0823 15.3061 29.0823 16.1117 29.8879C16.9174 30.6935 16.9174 31.9931 16.1117 32.7988C15.3061 33.6044 14.0065 33.6044 13.2009 32.7988C12.3953 31.9931 12.3953 30.6935 13.2009 29.8879Z" fill="white"/>
<path fill-rule="evenodd" clip-rule="evenodd" d="M30.1965 30.4907C29.7238 30.018 28.9639 30.018 28.4912 30.4907C28.0184 30.9634 28.0184 31.7233 28.4912 32.196C28.9639 32.6687 29.7238 32.6687 30.1965 32.196C30.6692 31.7233 30.6692 30.9634 30.1965 30.4907ZM27.8884 29.8879C28.694 29.0823 29.9936 29.0823 30.7992 29.8879C31.6049 30.6935 31.6049 31.9931 30.7992 32.7988C29.9936 33.6044 28.694 33.6044 27.8884 32.7988C27.0828 31.9931 27.0828 30.6935 27.8884 29.8879Z" fill="white"/>
<path fill-rule="evenodd" clip-rule="evenodd" d="M30.1965 15.8041C29.7238 15.3314 28.9639 15.3314 28.4912 15.8041C28.0184 16.2769 28.0184 17.0367 28.4912 17.5095C28.9639 17.9822 29.7238 17.9822 30.1965 17.5095C30.6692 17.0367 30.6692 16.2769 30.1965 15.8041ZM27.8884 15.2014C28.694 14.3958 29.9936 14.3958 30.7992 15.2014C31.6049 16.007 31.6049 17.3066 30.7992 18.1122C29.9936 18.9178 28.694 18.9178 27.8884 18.1122C27.0828 17.3066 27.0828 16.007 27.8884 15.2014Z" fill="white"/>
<path fill-rule="evenodd" clip-rule="evenodd" d="M25.7088 18.908C25.8699 18.7475 26.1286 18.7417 26.2967 18.8948L27.0921 19.6192C27.1782 19.6976 27.2285 19.8079 27.2312 19.9243C27.2339 20.0408 27.1889 20.1533 27.1065 20.2357C25.0501 22.2921 25.0501 25.6157 27.1065 27.6721C27.2676 27.8332 27.2735 28.0925 27.12 28.2608L26.3814 29.0704C26.3029 29.1564 26.1927 29.2066 26.0763 29.2092C25.9599 29.2119 25.8475 29.1668 25.7651 29.0845C23.7087 27.0281 20.3851 27.0281 18.3287 29.0845C18.1677 29.2455 17.9086 29.2515 17.7403 29.0983L16.9449 28.3739C16.8589 28.2955 16.8086 28.1854 16.8058 28.069C16.803 27.9527 16.8479 27.8403 16.93 27.7578C18.9802 25.7011 18.9795 22.3699 16.9305 20.3209C16.7694 20.1598 16.7635 19.9006 16.917 19.7323L17.6556 18.9227C17.734 18.8367 17.8441 18.7866 17.9604 18.7838C18.0766 18.7811 18.189 18.8259 18.2714 18.908C20.3279 20.958 23.6523 20.958 25.7088 18.908ZM26.0131 19.7895C23.7218 21.7924 20.2966 21.8007 17.9958 19.8145L17.8121 20.0159C19.8146 22.302 19.8222 25.7324 17.8367 28.0331L18.0234 28.2031C20.3148 26.1937 23.7407 26.1854 26.0416 28.178L26.2248 27.9772C24.2158 25.6858 24.2074 22.2603 26.1997 19.9595L26.0131 19.7895Z" fill="white"/>
</svg>
