<svg width="22" height="22" viewBox="0 0 22 22" fill="none" xmlns="http://www.w3.org/2000/svg">
<path d="M11 21C16.5228 21 21 16.5228 21 11C21 5.47715 16.5228 1 11 1C5.47715 1 1 5.47715 1 11C1 16.5228 5.47715 21 11 21Z" stroke="white" stroke-width="1.5"/>
<path d="M15.5829 8.66667C14.8095 7.09697 13.043 6 10.9876 6C8.38854 6 6.25148 7.75408 6 10" stroke="white" stroke-width="1.5" stroke-linecap="round" stroke-linejoin="round"/>
<path d="M13.4941 8.72222H15.4003C15.7317 8.72222 16.0003 8.45359 16.0003 8.12222V6.5" stroke="white" stroke-width="1.5" stroke-linecap="round" stroke-linejoin="round"/>
<path d="M6.41699 12.6667C7.19046 14.6288 8.9569 16 11.0123 16C13.6114 16 15.7484 13.8074 15.9999 11" stroke="white" stroke-width="1.5" stroke-linecap="round" stroke-linejoin="round"/>
<path d="M8.50618 12.6221H6.6C6.26863 12.6221 6 12.8908 6 13.2221V15.3999" stroke="white" stroke-width="1.5" stroke-linecap="round" stroke-linejoin="round"/>
</svg>
