<svg width="34" height="34" viewBox="0 0 34 34" fill="none" xmlns="http://www.w3.org/2000/svg">
<path d="M8.27098 13.9342C6.35889 14.164 4.37325 13.5481 2.90241 12.0773C0.365211 9.54008 0.365211 5.4401 2.90241 2.9029C5.43961 0.3657 9.53958 0.3657 12.0768 2.9029C13.566 4.39213 14.1819 6.44212 13.9153 8.38179" stroke="white" stroke-width="2" stroke-linecap="round" stroke-linejoin="round"/>
<path d="M13.9337 25.7286C14.1635 27.6407 13.5476 29.6263 12.0768 31.0972C9.53958 33.6344 5.43961 33.6344 2.90241 31.0972C0.365211 28.56 0.365211 24.4508 2.90241 21.9228C4.39164 20.4336 6.44162 19.8176 8.38129 20.0842" stroke="white" stroke-width="2" stroke-linecap="round" stroke-linejoin="round"/>
<path d="M25.7277 20.0658C27.6398 19.8359 29.6255 20.4519 31.0963 21.9135C33.6335 24.4507 33.6335 28.5507 31.0963 31.0879C28.5591 33.6251 24.4499 33.6251 21.9219 31.0879C20.4327 29.5987 19.8168 27.5487 20.0834 25.609" stroke="white" stroke-width="2" stroke-linecap="round" stroke-linejoin="round"/>
<path d="M20.0646 8.28062C19.8348 6.36853 20.4507 4.3829 21.9123 2.91206C24.4495 0.374855 28.5495 0.374855 31.0867 2.91206C33.6239 5.44926 33.6239 9.54922 31.0867 12.0864C29.5975 13.5756 27.5475 14.1916 25.6078 13.925" stroke="white" stroke-width="2" stroke-linecap="round" stroke-linejoin="round"/>
<path d="M11.2021 23.9542C14.4379 20.7184 19.687 20.7184 22.9228 23.9542L23.9984 22.7776C20.7625 19.5417 20.7625 14.2927 23.9984 11.0568L22.8401 9.99963C19.6042 13.2355 14.3552 13.2355 11.1193 9.99963L10.0438 11.1763C13.2796 14.4122 13.2796 19.6612 10.0438 22.8971L11.2021 23.9542Z" stroke="white" stroke-width="2" stroke-linecap="round" stroke-linejoin="round"/>
<path d="M5.28339 9.70549L9.70511 5.29297" stroke="white" stroke-width="2" stroke-linecap="round" stroke-linejoin="round"/>
<path d="M8.15921 7.49928C8.15921 7.86699 7.86504 8.16116 7.49733 8.16116C7.12962 8.16116 6.83545 7.86699 6.83545 7.49928C6.83545 7.13157 7.12962 6.8374 7.49733 6.8374C7.86504 6.8374 8.15921 7.13157 8.15921 7.49928Z" stroke="white" stroke-width="2" stroke-linecap="round" stroke-linejoin="round"/>
<path d="M7.49733 25.8389C7.86504 25.8389 8.15921 26.133 8.15921 26.5007C8.15921 26.8685 7.86504 27.1626 7.49733 27.1626C7.12962 27.1626 6.83545 26.8685 6.83545 26.5007C6.83545 26.133 7.12962 25.8389 7.49733 25.8389Z" stroke="white" stroke-width="2" stroke-linecap="round" stroke-linejoin="round"/>
<path d="M25.8381 26.5099C25.8381 26.1422 26.1322 25.848 26.5 25.848C26.8677 25.848 27.1618 26.1422 27.1618 26.5099C27.1618 26.8776 26.8677 27.1718 26.5 27.1718C26.1322 27.1718 25.8381 26.8776 25.8381 26.5099Z" stroke="white" stroke-width="2" stroke-linecap="round" stroke-linejoin="round"/>
<path d="M26.5 8.16116C26.8655 8.16116 27.1618 7.86483 27.1618 7.49928C27.1618 7.13374 26.8655 6.8374 26.5 6.8374C26.1344 6.8374 25.8381 7.13374 25.8381 7.49928C25.8381 7.86483 26.1344 8.16116 26.5 8.16116Z" stroke="white" stroke-width="2" stroke-linecap="round" stroke-linejoin="round"/>
<path d="M9.70511 28.7161L5.28339 24.2944" stroke="white" stroke-width="2" stroke-linecap="round" stroke-linejoin="round"/>
<path d="M28.7155 24.2944L24.2938 28.7161" stroke="white" stroke-width="2" stroke-linecap="round" stroke-linejoin="round"/>
<path d="M24.2938 5.29297L28.7155 9.70549" stroke="white" stroke-width="2" stroke-linecap="round" stroke-linejoin="round"/>
</svg>
