<svg width="34" height="34" viewBox="0 0 34 34" fill="none" xmlns="http://www.w3.org/2000/svg">
<mask id="path-1-outside-1_384_4687" maskUnits="userSpaceOnUse" x="-0.000488281" y="0" width="34" height="34" fill="black">
<rect fill="white" x="-0.000488281" width="34" height="34"/>
<path d="M31.6484 10.5619C31.5932 10.4489 31.4966 10.3618 31.3788 10.3187C31.261 10.2756 31.1312 10.2799 31.0165 10.3308C30.9018 10.3816 30.8112 10.475 30.7636 10.5914C30.7161 10.7078 30.7152 10.8381 30.7613 10.9551C32.1136 14.0838 32.376 17.5784 31.5061 20.8751C30.6361 24.1718 28.6847 27.0783 25.9666 29.1256C25.5168 27.7109 24.9776 26.3264 24.3523 24.9805C25.8578 23.5799 26.9362 21.7793 27.4622 19.7881C27.9881 17.7968 27.94 15.6967 27.3234 13.7318C27.3041 13.671 27.2731 13.6146 27.2322 13.5659C27.1913 13.5171 27.1411 13.4769 27.0847 13.4476C27.0283 13.4183 26.9667 13.4004 26.9033 13.3949C26.84 13.3895 26.7763 13.3966 26.7157 13.4159C26.6551 13.4352 26.5989 13.4663 26.5503 13.5074C26.5017 13.5485 26.4617 13.5988 26.4324 13.6554C26.4032 13.712 26.3854 13.7738 26.38 13.8374C26.3746 13.9009 26.3817 13.9649 26.4009 14.0256C26.9439 15.757 27.0027 17.6047 26.5709 19.3672C26.139 21.1298 25.2331 22.7395 23.9519 24.0209C22.7224 21.0312 20.6129 17.4511 22.2032 14.1861L25.8237 5.57493C26.0079 5.13546 26.0262 4.64369 25.8752 4.19166C25.7241 3.73962 25.4141 3.3583 25.0031 3.11907C21.5829 1.16369 17.5674 0.533012 13.7153 1.3462C9.86327 2.15939 6.44146 4.36012 4.09654 7.53252C4.02037 7.63662 3.98853 7.76682 4.00803 7.89447C4.02753 8.02212 4.09678 8.13678 4.20053 8.2132C4.30428 8.28963 4.43404 8.32158 4.56126 8.30201C4.68849 8.28244 4.80275 8.21297 4.87893 8.10887C6.901 5.36693 9.78574 3.38952 13.0666 2.4964C16.3475 1.60328 19.8327 1.84667 22.9587 3.18721C21.9648 4.28235 21.0419 5.44025 20.1956 6.6538C18.2334 6.04711 16.1399 6.01158 14.1584 6.55135C12.1769 7.09112 10.3887 8.18402 9.00166 9.70305C8.95504 9.74952 8.91831 9.80501 8.8937 9.86615C8.86909 9.92729 8.85712 9.99281 8.8585 10.0587C8.85988 10.1247 8.8746 10.1896 8.90175 10.2497C8.92891 10.3097 8.96793 10.3636 9.01646 10.4081C9.06499 10.4525 9.12202 10.4866 9.18408 10.5083C9.24614 10.53 9.31195 10.5388 9.37751 10.5342C9.44306 10.5296 9.50701 10.5117 9.56546 10.4816C9.62391 10.4514 9.67565 10.4097 9.71755 10.3589C10.9404 9.02094 12.5057 8.04519 14.2429 7.53784C15.9801 7.03049 17.8227 7.01097 19.5702 7.48142L16.8453 11.0914C16.2575 11.8668 15.5219 12.5171 14.6812 13.0045C13.8406 13.4919 12.9117 13.8067 11.9487 13.9305L2.70437 15.0903C2.2336 15.1504 1.80079 15.3806 1.48698 15.7378C1.17317 16.095 0.999873 16.5547 0.999537 17.0309C0.992567 20.9873 2.44501 24.8064 5.07708 27.7525C7.70914 30.6985 11.3346 32.563 15.2551 32.9869C15.32 32.9974 15.3865 32.9946 15.4503 32.9786C15.5141 32.9626 15.574 32.9337 15.6264 32.8937C15.6788 32.8538 15.7225 32.8035 15.7549 32.7461C15.7873 32.6886 15.8078 32.6251 15.815 32.5595C15.8222 32.4939 15.816 32.4275 15.7968 32.3643C15.7776 32.3012 15.7459 32.2426 15.7034 32.1921C15.661 32.1417 15.6088 32.1004 15.5499 32.0709C15.4911 32.0413 15.4269 32.024 15.3612 32.0201C11.9772 31.6541 8.81826 30.1429 6.40436 27.7354C3.99046 25.3278 2.46548 22.1673 2.08045 18.7741C3.52029 19.0895 4.97855 19.3133 6.44653 19.4442C6.89805 21.4558 7.91226 23.2964 9.37006 24.7498C10.8279 26.2032 12.6687 27.2091 14.6764 27.6493C14.8006 27.6727 14.9289 27.6467 15.0342 27.5767C15.1395 27.5067 15.2135 27.3983 15.2404 27.2744C15.2673 27.1506 15.245 27.0211 15.1783 26.9135C15.1115 26.8059 15.0056 26.7287 14.883 26.6982C13.1129 26.3109 11.4839 25.4405 10.1757 24.1829C8.86746 22.9254 7.93093 21.3297 7.46943 19.5719L11.9515 20.1397C12.9147 20.263 13.8438 20.5775 14.6846 21.065C15.5253 21.5524 16.2608 22.2031 16.8482 22.9789L22.4706 30.4316C22.7556 30.8085 23.1672 31.0688 23.629 31.1644C24.0908 31.2599 24.5715 31.1842 24.9819 30.9512C28.3869 28.9597 30.9461 25.7846 32.1747 22.027C33.4033 18.2694 33.216 14.1903 31.6484 10.5619ZM24.515 30.0909C24.3079 30.2112 24.0641 30.2513 23.8295 30.2037C23.595 30.1561 23.3859 30.0241 23.2416 29.8326L17.6192 22.3798C16.9537 21.5004 16.1202 20.7628 15.1676 20.21C14.2149 19.6572 13.162 19.3004 12.0704 19.1602L2.82746 18.0004C2.58988 17.9716 2.37104 17.8565 2.21229 17.6768C2.05355 17.4971 1.9659 17.2653 1.9659 17.0252C1.9659 16.7851 2.05355 16.5533 2.21229 16.3736C2.37104 16.1939 2.58988 16.0788 2.82746 16.05L12.0704 14.8902C13.1615 14.751 14.2141 14.3954 15.167 13.8441C16.1199 13.2928 16.9539 12.5569 17.6206 11.6791L23.2431 4.22492C23.3867 4.03275 23.5955 3.90004 23.83 3.85188C24.0645 3.80371 24.3085 3.84343 24.5158 3.96352C24.7232 4.08361 24.8794 4.27575 24.9551 4.50361C25.0308 4.73148 25.0207 4.97928 24.9267 5.20016L21.3048 13.8127C20.8797 14.8308 20.6607 15.9235 20.6607 17.0273C20.6607 18.1311 20.8797 19.2239 21.3048 20.242L24.9267 28.8545C25.0203 29.0755 25.0301 29.3232 24.9542 29.551C24.8784 29.7787 24.7222 29.9708 24.515 30.0909ZM16.9995 14.92C16.4423 14.92 15.9079 15.1421 15.5139 15.5374C15.1199 15.9328 14.8986 16.4689 14.8986 17.028C14.8986 17.5871 15.1199 18.1233 15.5139 18.5187C15.9079 18.914 16.4423 19.1361 16.9995 19.1361C17.5568 19.1361 18.0911 18.914 18.4852 18.5187C18.8792 18.1233 19.1005 17.5871 19.1005 17.028C19.1005 16.4689 18.8792 15.9328 18.4852 15.5374C18.0911 15.1421 17.5568 14.92 16.9995 14.92ZM16.9995 18.1623C16.6994 18.1623 16.4115 18.0426 16.1992 17.8297C15.9869 17.6167 15.8677 17.3278 15.8677 17.0266C15.8677 16.7254 15.9869 16.4366 16.1992 16.2236C16.4115 16.0106 16.6994 15.891 16.9995 15.891C17.3003 15.891 17.5887 16.0108 17.8014 16.2242C18.014 16.4376 18.1335 16.727 18.1335 17.0287C18.1335 17.3305 18.014 17.6199 17.8014 17.8333C17.5887 18.0467 17.3003 18.1665 16.9995 18.1665V18.1623Z"/>
</mask>
<path d="M31.6484 10.5619C31.5932 10.4489 31.4966 10.3618 31.3788 10.3187C31.261 10.2756 31.1312 10.2799 31.0165 10.3308C30.9018 10.3816 30.8112 10.475 30.7636 10.5914C30.7161 10.7078 30.7152 10.8381 30.7613 10.9551C32.1136 14.0838 32.376 17.5784 31.5061 20.8751C30.6361 24.1718 28.6847 27.0783 25.9666 29.1256C25.5168 27.7109 24.9776 26.3264 24.3523 24.9805C25.8578 23.5799 26.9362 21.7793 27.4622 19.7881C27.9881 17.7968 27.94 15.6967 27.3234 13.7318C27.3041 13.671 27.2731 13.6146 27.2322 13.5659C27.1913 13.5171 27.1411 13.4769 27.0847 13.4476C27.0283 13.4183 26.9667 13.4004 26.9033 13.3949C26.84 13.3895 26.7763 13.3966 26.7157 13.4159C26.6551 13.4352 26.5989 13.4663 26.5503 13.5074C26.5017 13.5485 26.4617 13.5988 26.4324 13.6554C26.4032 13.712 26.3854 13.7738 26.38 13.8374C26.3746 13.9009 26.3817 13.9649 26.4009 14.0256C26.9439 15.757 27.0027 17.6047 26.5709 19.3672C26.139 21.1298 25.2331 22.7395 23.9519 24.0209C22.7224 21.0312 20.6129 17.4511 22.2032 14.1861L25.8237 5.57493C26.0079 5.13546 26.0262 4.64369 25.8752 4.19166C25.7241 3.73962 25.4141 3.3583 25.0031 3.11907C21.5829 1.16369 17.5674 0.533012 13.7153 1.3462C9.86327 2.15939 6.44146 4.36012 4.09654 7.53252C4.02037 7.63662 3.98853 7.76682 4.00803 7.89447C4.02753 8.02212 4.09678 8.13678 4.20053 8.2132C4.30428 8.28963 4.43404 8.32158 4.56126 8.30201C4.68849 8.28244 4.80275 8.21297 4.87893 8.10887C6.901 5.36693 9.78574 3.38952 13.0666 2.4964C16.3475 1.60328 19.8327 1.84667 22.9587 3.18721C21.9648 4.28235 21.0419 5.44025 20.1956 6.6538C18.2334 6.04711 16.1399 6.01158 14.1584 6.55135C12.1769 7.09112 10.3887 8.18402 9.00166 9.70305C8.95504 9.74952 8.91831 9.80501 8.8937 9.86615C8.86909 9.92729 8.85712 9.99281 8.8585 10.0587C8.85988 10.1247 8.8746 10.1896 8.90175 10.2497C8.92891 10.3097 8.96793 10.3636 9.01646 10.4081C9.06499 10.4525 9.12202 10.4866 9.18408 10.5083C9.24614 10.53 9.31195 10.5388 9.37751 10.5342C9.44306 10.5296 9.50701 10.5117 9.56546 10.4816C9.62391 10.4514 9.67565 10.4097 9.71755 10.3589C10.9404 9.02094 12.5057 8.04519 14.2429 7.53784C15.9801 7.03049 17.8227 7.01097 19.5702 7.48142L16.8453 11.0914C16.2575 11.8668 15.5219 12.5171 14.6812 13.0045C13.8406 13.4919 12.9117 13.8067 11.9487 13.9305L2.70437 15.0903C2.2336 15.1504 1.80079 15.3806 1.48698 15.7378C1.17317 16.095 0.999873 16.5547 0.999537 17.0309C0.992567 20.9873 2.44501 24.8064 5.07708 27.7525C7.70914 30.6985 11.3346 32.563 15.2551 32.9869C15.32 32.9974 15.3865 32.9946 15.4503 32.9786C15.5141 32.9626 15.574 32.9337 15.6264 32.8937C15.6788 32.8538 15.7225 32.8035 15.7549 32.7461C15.7873 32.6886 15.8078 32.6251 15.815 32.5595C15.8222 32.4939 15.816 32.4275 15.7968 32.3643C15.7776 32.3012 15.7459 32.2426 15.7034 32.1921C15.661 32.1417 15.6088 32.1004 15.5499 32.0709C15.4911 32.0413 15.4269 32.024 15.3612 32.0201C11.9772 31.6541 8.81826 30.1429 6.40436 27.7354C3.99046 25.3278 2.46548 22.1673 2.08045 18.7741C3.52029 19.0895 4.97855 19.3133 6.44653 19.4442C6.89805 21.4558 7.91226 23.2964 9.37006 24.7498C10.8279 26.2032 12.6687 27.2091 14.6764 27.6493C14.8006 27.6727 14.9289 27.6467 15.0342 27.5767C15.1395 27.5067 15.2135 27.3983 15.2404 27.2744C15.2673 27.1506 15.245 27.0211 15.1783 26.9135C15.1115 26.8059 15.0056 26.7287 14.883 26.6982C13.1129 26.3109 11.4839 25.4405 10.1757 24.1829C8.86746 22.9254 7.93093 21.3297 7.46943 19.5719L11.9515 20.1397C12.9147 20.263 13.8438 20.5775 14.6846 21.065C15.5253 21.5524 16.2608 22.2031 16.8482 22.9789L22.4706 30.4316C22.7556 30.8085 23.1672 31.0688 23.629 31.1644C24.0908 31.2599 24.5715 31.1842 24.9819 30.9512C28.3869 28.9597 30.9461 25.7846 32.1747 22.027C33.4033 18.2694 33.216 14.1903 31.6484 10.5619ZM24.515 30.0909C24.3079 30.2112 24.0641 30.2513 23.8295 30.2037C23.595 30.1561 23.3859 30.0241 23.2416 29.8326L17.6192 22.3798C16.9537 21.5004 16.1202 20.7628 15.1676 20.21C14.2149 19.6572 13.162 19.3004 12.0704 19.1602L2.82746 18.0004C2.58988 17.9716 2.37104 17.8565 2.21229 17.6768C2.05355 17.4971 1.9659 17.2653 1.9659 17.0252C1.9659 16.7851 2.05355 16.5533 2.21229 16.3736C2.37104 16.1939 2.58988 16.0788 2.82746 16.05L12.0704 14.8902C13.1615 14.751 14.2141 14.3954 15.167 13.8441C16.1199 13.2928 16.9539 12.5569 17.6206 11.6791L23.2431 4.22492C23.3867 4.03275 23.5955 3.90004 23.83 3.85188C24.0645 3.80371 24.3085 3.84343 24.5158 3.96352C24.7232 4.08361 24.8794 4.27575 24.9551 4.50361C25.0308 4.73148 25.0207 4.97928 24.9267 5.20016L21.3048 13.8127C20.8797 14.8308 20.6607 15.9235 20.6607 17.0273C20.6607 18.1311 20.8797 19.2239 21.3048 20.242L24.9267 28.8545C25.0203 29.0755 25.0301 29.3232 24.9542 29.551C24.8784 29.7787 24.7222 29.9708 24.515 30.0909ZM16.9995 14.92C16.4423 14.92 15.9079 15.1421 15.5139 15.5374C15.1199 15.9328 14.8986 16.4689 14.8986 17.028C14.8986 17.5871 15.1199 18.1233 15.5139 18.5187C15.9079 18.914 16.4423 19.1361 16.9995 19.1361C17.5568 19.1361 18.0911 18.914 18.4852 18.5187C18.8792 18.1233 19.1005 17.5871 19.1005 17.028C19.1005 16.4689 18.8792 15.9328 18.4852 15.5374C18.0911 15.1421 17.5568 14.92 16.9995 14.92ZM16.9995 18.1623C16.6994 18.1623 16.4115 18.0426 16.1992 17.8297C15.9869 17.6167 15.8677 17.3278 15.8677 17.0266C15.8677 16.7254 15.9869 16.4366 16.1992 16.2236C16.4115 16.0106 16.6994 15.891 16.9995 15.891C17.3003 15.891 17.5887 16.0108 17.8014 16.2242C18.014 16.4376 18.1335 16.727 18.1335 17.0287C18.1335 17.3305 18.014 17.6199 17.8014 17.8333C17.5887 18.0467 17.3003 18.1665 16.9995 18.1665V18.1623Z" fill="white"/>
<path d="M31.6484 10.5619C31.5932 10.4489 31.4966 10.3618 31.3788 10.3187C31.261 10.2756 31.1312 10.2799 31.0165 10.3308C30.9018 10.3816 30.8112 10.475 30.7636 10.5914C30.7161 10.7078 30.7152 10.8381 30.7613 10.9551C32.1136 14.0838 32.376 17.5784 31.5061 20.8751C30.6361 24.1718 28.6847 27.0783 25.9666 29.1256C25.5168 27.7109 24.9776 26.3264 24.3523 24.9805C25.8578 23.5799 26.9362 21.7793 27.4622 19.7881C27.9881 17.7968 27.94 15.6967 27.3234 13.7318C27.3041 13.671 27.2731 13.6146 27.2322 13.5659C27.1913 13.5171 27.1411 13.4769 27.0847 13.4476C27.0283 13.4183 26.9667 13.4004 26.9033 13.3949C26.84 13.3895 26.7763 13.3966 26.7157 13.4159C26.6551 13.4352 26.5989 13.4663 26.5503 13.5074C26.5017 13.5485 26.4617 13.5988 26.4324 13.6554C26.4032 13.712 26.3854 13.7738 26.38 13.8374C26.3746 13.9009 26.3817 13.9649 26.4009 14.0256C26.9439 15.757 27.0027 17.6047 26.5709 19.3672C26.139 21.1298 25.2331 22.7395 23.9519 24.0209C22.7224 21.0312 20.6129 17.4511 22.2032 14.1861L25.8237 5.57493C26.0079 5.13546 26.0262 4.64369 25.8752 4.19166C25.7241 3.73962 25.4141 3.3583 25.0031 3.11907C21.5829 1.16369 17.5674 0.533012 13.7153 1.3462C9.86327 2.15939 6.44146 4.36012 4.09654 7.53252C4.02037 7.63662 3.98853 7.76682 4.00803 7.89447C4.02753 8.02212 4.09678 8.13678 4.20053 8.2132C4.30428 8.28963 4.43404 8.32158 4.56126 8.30201C4.68849 8.28244 4.80275 8.21297 4.87893 8.10887C6.901 5.36693 9.78574 3.38952 13.0666 2.4964C16.3475 1.60328 19.8327 1.84667 22.9587 3.18721C21.9648 4.28235 21.0419 5.44025 20.1956 6.6538C18.2334 6.04711 16.1399 6.01158 14.1584 6.55135C12.1769 7.09112 10.3887 8.18402 9.00166 9.70305C8.95504 9.74952 8.91831 9.80501 8.8937 9.86615C8.86909 9.92729 8.85712 9.99281 8.8585 10.0587C8.85988 10.1247 8.8746 10.1896 8.90175 10.2497C8.92891 10.3097 8.96793 10.3636 9.01646 10.4081C9.06499 10.4525 9.12202 10.4866 9.18408 10.5083C9.24614 10.53 9.31195 10.5388 9.37751 10.5342C9.44306 10.5296 9.50701 10.5117 9.56546 10.4816C9.62391 10.4514 9.67565 10.4097 9.71755 10.3589C10.9404 9.02094 12.5057 8.04519 14.2429 7.53784C15.9801 7.03049 17.8227 7.01097 19.5702 7.48142L16.8453 11.0914C16.2575 11.8668 15.5219 12.5171 14.6812 13.0045C13.8406 13.4919 12.9117 13.8067 11.9487 13.9305L2.70437 15.0903C2.2336 15.1504 1.80079 15.3806 1.48698 15.7378C1.17317 16.095 0.999873 16.5547 0.999537 17.0309C0.992567 20.9873 2.44501 24.8064 5.07708 27.7525C7.70914 30.6985 11.3346 32.563 15.2551 32.9869C15.32 32.9974 15.3865 32.9946 15.4503 32.9786C15.5141 32.9626 15.574 32.9337 15.6264 32.8937C15.6788 32.8538 15.7225 32.8035 15.7549 32.7461C15.7873 32.6886 15.8078 32.6251 15.815 32.5595C15.8222 32.4939 15.816 32.4275 15.7968 32.3643C15.7776 32.3012 15.7459 32.2426 15.7034 32.1921C15.661 32.1417 15.6088 32.1004 15.5499 32.0709C15.4911 32.0413 15.4269 32.024 15.3612 32.0201C11.9772 31.6541 8.81826 30.1429 6.40436 27.7354C3.99046 25.3278 2.46548 22.1673 2.08045 18.7741C3.52029 19.0895 4.97855 19.3133 6.44653 19.4442C6.89805 21.4558 7.91226 23.2964 9.37006 24.7498C10.8279 26.2032 12.6687 27.2091 14.6764 27.6493C14.8006 27.6727 14.9289 27.6467 15.0342 27.5767C15.1395 27.5067 15.2135 27.3983 15.2404 27.2744C15.2673 27.1506 15.245 27.0211 15.1783 26.9135C15.1115 26.8059 15.0056 26.7287 14.883 26.6982C13.1129 26.3109 11.4839 25.4405 10.1757 24.1829C8.86746 22.9254 7.93093 21.3297 7.46943 19.5719L11.9515 20.1397C12.9147 20.263 13.8438 20.5775 14.6846 21.065C15.5253 21.5524 16.2608 22.2031 16.8482 22.9789L22.4706 30.4316C22.7556 30.8085 23.1672 31.0688 23.629 31.1644C24.0908 31.2599 24.5715 31.1842 24.9819 30.9512C28.3869 28.9597 30.9461 25.7846 32.1747 22.027C33.4033 18.2694 33.216 14.1903 31.6484 10.5619ZM24.515 30.0909C24.3079 30.2112 24.0641 30.2513 23.8295 30.2037C23.595 30.1561 23.3859 30.0241 23.2416 29.8326L17.6192 22.3798C16.9537 21.5004 16.1202 20.7628 15.1676 20.21C14.2149 19.6572 13.162 19.3004 12.0704 19.1602L2.82746 18.0004C2.58988 17.9716 2.37104 17.8565 2.21229 17.6768C2.05355 17.4971 1.9659 17.2653 1.9659 17.0252C1.9659 16.7851 2.05355 16.5533 2.21229 16.3736C2.37104 16.1939 2.58988 16.0788 2.82746 16.05L12.0704 14.8902C13.1615 14.751 14.2141 14.3954 15.167 13.8441C16.1199 13.2928 16.9539 12.5569 17.6206 11.6791L23.2431 4.22492C23.3867 4.03275 23.5955 3.90004 23.83 3.85188C24.0645 3.80371 24.3085 3.84343 24.5158 3.96352C24.7232 4.08361 24.8794 4.27575 24.9551 4.50361C25.0308 4.73148 25.0207 4.97928 24.9267 5.20016L21.3048 13.8127C20.8797 14.8308 20.6607 15.9235 20.6607 17.0273C20.6607 18.1311 20.8797 19.2239 21.3048 20.242L24.9267 28.8545C25.0203 29.0755 25.0301 29.3232 24.9542 29.551C24.8784 29.7787 24.7222 29.9708 24.515 30.0909ZM16.9995 14.92C16.4423 14.92 15.9079 15.1421 15.5139 15.5374C15.1199 15.9328 14.8986 16.4689 14.8986 17.028C14.8986 17.5871 15.1199 18.1233 15.5139 18.5187C15.9079 18.914 16.4423 19.1361 16.9995 19.1361C17.5568 19.1361 18.0911 18.914 18.4852 18.5187C18.8792 18.1233 19.1005 17.5871 19.1005 17.028C19.1005 16.4689 18.8792 15.9328 18.4852 15.5374C18.0911 15.1421 17.5568 14.92 16.9995 14.92ZM16.9995 18.1623C16.6994 18.1623 16.4115 18.0426 16.1992 17.8297C15.9869 17.6167 15.8677 17.3278 15.8677 17.0266C15.8677 16.7254 15.9869 16.4366 16.1992 16.2236C16.4115 16.0106 16.6994 15.891 16.9995 15.891C17.3003 15.891 17.5887 16.0108 17.8014 16.2242C18.014 16.4376 18.1335 16.727 18.1335 17.0287C18.1335 17.3305 18.014 17.6199 17.8014 17.8333C17.5887 18.0467 17.3003 18.1665 16.9995 18.1665V18.1623Z" stroke="white" stroke-width="0.6" mask="url(#path-1-outside-1_384_4687)"/>
</svg>
