<svg width="34" height="34" viewBox="0 0 34 34" fill="none" xmlns="http://www.w3.org/2000/svg">
<mask id="path-1-outside-1_384_4684" maskUnits="userSpaceOnUse" x="-0.000488281" y="0" width="34" height="34" fill="black">
<rect fill="white" x="-0.000488281" width="34" height="34"/>
<path fill-rule="evenodd" clip-rule="evenodd" d="M5.77776 6.32903C5.77882 6.36799 5.78149 6.40695 5.7911 6.44591L6.85843 10.7152C6.91927 10.958 7.137 11.1197 7.37608 11.1197C7.41878 11.1197 7.46254 11.1144 7.50576 11.1032C7.79181 11.0322 7.96578 10.7424 7.89427 10.4564L7.2939 8.05597L9.13398 9.89605C9.23804 10.0001 9.37466 10.0524 9.51128 10.0524C9.64736 10.0524 9.78398 10.0001 9.88858 9.89605C10.0967 9.68739 10.0967 9.34958 9.88858 9.14145L8.0485 7.30137L10.4489 7.90121C10.7344 7.97432 11.0247 7.79981 11.0963 7.51324C11.1678 7.22773 10.9938 6.93795 10.7078 6.86644L6.43843 5.79911C6.39894 5.78897 6.35892 5.78523 6.31889 5.7847C6.31462 5.7847 6.31089 5.78363 6.30662 5.78363C6.24578 5.78363 6.18708 5.7975 6.12998 5.81778C6.11557 5.82312 6.10222 5.82899 6.08835 5.83539C6.03125 5.86154 5.97735 5.8941 5.93199 5.93946C5.88609 5.98482 5.85354 6.03925 5.82739 6.09582C5.82152 6.1097 5.81565 6.12251 5.81031 6.13692C5.79003 6.19348 5.77669 6.25219 5.77616 6.31356C5.77616 6.31836 5.77776 6.3237 5.77776 6.32903ZM18.0499 19.1247C18.638 19.1247 19.1172 18.6455 19.1172 18.0574C19.1172 17.4688 18.638 16.9901 18.0499 16.9901C17.4613 16.9901 16.9826 17.4688 16.9826 18.0574C16.9826 18.6455 17.4613 19.1247 18.0499 19.1247ZM18.0499 20.192C16.8726 20.192 15.9153 19.2346 15.9153 18.0574C15.9153 16.8801 16.8726 15.9227 18.0499 15.9227C19.2272 15.9227 20.1846 16.8801 20.1846 18.0574C20.1846 19.2346 19.2272 20.192 18.0499 20.192ZM32.9925 17.5237C32.9925 17.8183 32.7534 18.0574 32.4589 18.0574H27.6559V19.6584C27.6559 20.5128 27.4237 21.1788 26.9659 21.6367L24.6748 23.9277L29.6342 28.887C29.8423 29.0952 29.8423 29.433 29.6342 29.6416C29.5296 29.7457 29.393 29.798 29.2569 29.798C29.1203 29.798 28.9836 29.7457 28.8796 29.6416L23.9202 24.6823L21.6292 26.9733C21.0064 27.5961 20.0378 27.6634 19.6509 27.6634H18.0499V32.4663C18.0499 32.7609 17.8108 33 17.5162 33C17.2211 33 16.9826 32.7609 16.9826 32.4663V27.6634H15.9153C15.3272 27.6634 14.5069 27.5433 13.937 26.9733L8.06665 21.103C7.96632 21.0027 7.91028 20.8671 7.91028 20.7257V16.9901C7.91028 16.8481 7.96632 16.7126 8.06665 16.6128L11.9587 12.7207L11.1075 11.8695C8.2118 14.6718 4.73871 17.0039 2.66382 17.0039C2.1515 17.0039 1.72404 16.862 1.41238 16.5498C0.129981 15.2685 2.02716 11.4346 4.46281 8.47864C4.65066 8.2513 4.98687 8.21874 5.21421 8.40659C5.44155 8.59337 5.4741 8.93012 5.28678 9.15746C2.37831 12.6871 1.78167 15.4104 2.16698 15.7952C2.76202 16.3929 6.32796 15.1484 10.735 10.7424C15.1388 6.33864 16.3801 2.77536 15.784 2.17872C15.349 1.74432 12.6204 2.44609 9.17133 5.28359C8.94452 5.47144 8.60778 5.43781 8.42046 5.21047C8.23315 4.98313 8.2657 4.64692 8.49358 4.45907C11.5136 1.9738 15.246 0.133187 16.5386 1.42412C18.1145 3.00003 15.3533 7.50523 11.861 11.1139L12.7133 11.9661L16.6053 8.07412C16.7051 7.97379 16.8406 7.91775 16.9826 7.91775H17.7612C18.0558 7.91775 18.2949 8.1563 18.2949 8.45142C18.2949 8.746 18.0558 8.98508 17.7612 8.98508H17.2035L8.97761 17.211V20.5042L14.6916 26.2187C15.0198 26.5469 15.5988 26.596 15.9153 26.596H16.9826V23.9277C16.9826 23.6326 17.2211 23.394 17.5162 23.394C17.8108 23.394 18.0499 23.6326 18.0499 23.9277V26.596H19.6509C20.0597 26.596 20.596 26.4968 20.8746 26.2187L23.1656 23.9277L20.3409 21.103C20.1323 20.8943 20.1323 20.5565 20.3409 20.3484C20.5491 20.1397 20.8869 20.1397 21.0955 20.3484L23.9202 23.1726L26.2112 20.8821C26.4647 20.628 26.5885 20.2278 26.5885 19.6584V18.0574H23.9202C23.6251 18.0574 23.3866 17.8183 23.3866 17.5237C23.3866 17.2286 23.6251 16.9901 23.9202 16.9901H26.5885V15.9227C26.5885 15.4163 26.4365 14.9242 26.2112 14.699L20.7182 9.20602L10.9559 18.9684C10.7472 19.1765 10.4094 19.1765 10.2013 18.9684C9.99264 18.7597 9.99264 18.4219 10.2013 18.2138L20.3409 8.07412C20.5491 7.86546 20.8869 7.86546 21.0955 8.07412L26.9659 13.9444C27.6062 14.5843 27.6559 15.6201 27.6559 15.9227V16.9901H32.4589C32.7534 16.9901 32.9925 17.2286 32.9925 17.5237Z"/>
</mask>
<path fill-rule="evenodd" clip-rule="evenodd" d="M5.77776 6.32903C5.77882 6.36799 5.78149 6.40695 5.7911 6.44591L6.85843 10.7152C6.91927 10.958 7.137 11.1197 7.37608 11.1197C7.41878 11.1197 7.46254 11.1144 7.50576 11.1032C7.79181 11.0322 7.96578 10.7424 7.89427 10.4564L7.2939 8.05597L9.13398 9.89605C9.23804 10.0001 9.37466 10.0524 9.51128 10.0524C9.64736 10.0524 9.78398 10.0001 9.88858 9.89605C10.0967 9.68739 10.0967 9.34958 9.88858 9.14145L8.0485 7.30137L10.4489 7.90121C10.7344 7.97432 11.0247 7.79981 11.0963 7.51324C11.1678 7.22773 10.9938 6.93795 10.7078 6.86644L6.43843 5.79911C6.39894 5.78897 6.35892 5.78523 6.31889 5.7847C6.31462 5.7847 6.31089 5.78363 6.30662 5.78363C6.24578 5.78363 6.18708 5.7975 6.12998 5.81778C6.11557 5.82312 6.10222 5.82899 6.08835 5.83539C6.03125 5.86154 5.97735 5.8941 5.93199 5.93946C5.88609 5.98482 5.85354 6.03925 5.82739 6.09582C5.82152 6.1097 5.81565 6.12251 5.81031 6.13692C5.79003 6.19348 5.77669 6.25219 5.77616 6.31356C5.77616 6.31836 5.77776 6.3237 5.77776 6.32903ZM18.0499 19.1247C18.638 19.1247 19.1172 18.6455 19.1172 18.0574C19.1172 17.4688 18.638 16.9901 18.0499 16.9901C17.4613 16.9901 16.9826 17.4688 16.9826 18.0574C16.9826 18.6455 17.4613 19.1247 18.0499 19.1247ZM18.0499 20.192C16.8726 20.192 15.9153 19.2346 15.9153 18.0574C15.9153 16.8801 16.8726 15.9227 18.0499 15.9227C19.2272 15.9227 20.1846 16.8801 20.1846 18.0574C20.1846 19.2346 19.2272 20.192 18.0499 20.192ZM32.9925 17.5237C32.9925 17.8183 32.7534 18.0574 32.4589 18.0574H27.6559V19.6584C27.6559 20.5128 27.4237 21.1788 26.9659 21.6367L24.6748 23.9277L29.6342 28.887C29.8423 29.0952 29.8423 29.433 29.6342 29.6416C29.5296 29.7457 29.393 29.798 29.2569 29.798C29.1203 29.798 28.9836 29.7457 28.8796 29.6416L23.9202 24.6823L21.6292 26.9733C21.0064 27.5961 20.0378 27.6634 19.6509 27.6634H18.0499V32.4663C18.0499 32.7609 17.8108 33 17.5162 33C17.2211 33 16.9826 32.7609 16.9826 32.4663V27.6634H15.9153C15.3272 27.6634 14.5069 27.5433 13.937 26.9733L8.06665 21.103C7.96632 21.0027 7.91028 20.8671 7.91028 20.7257V16.9901C7.91028 16.8481 7.96632 16.7126 8.06665 16.6128L11.9587 12.7207L11.1075 11.8695C8.2118 14.6718 4.73871 17.0039 2.66382 17.0039C2.1515 17.0039 1.72404 16.862 1.41238 16.5498C0.129981 15.2685 2.02716 11.4346 4.46281 8.47864C4.65066 8.2513 4.98687 8.21874 5.21421 8.40659C5.44155 8.59337 5.4741 8.93012 5.28678 9.15746C2.37831 12.6871 1.78167 15.4104 2.16698 15.7952C2.76202 16.3929 6.32796 15.1484 10.735 10.7424C15.1388 6.33864 16.3801 2.77536 15.784 2.17872C15.349 1.74432 12.6204 2.44609 9.17133 5.28359C8.94452 5.47144 8.60778 5.43781 8.42046 5.21047C8.23315 4.98313 8.2657 4.64692 8.49358 4.45907C11.5136 1.9738 15.246 0.133187 16.5386 1.42412C18.1145 3.00003 15.3533 7.50523 11.861 11.1139L12.7133 11.9661L16.6053 8.07412C16.7051 7.97379 16.8406 7.91775 16.9826 7.91775H17.7612C18.0558 7.91775 18.2949 8.1563 18.2949 8.45142C18.2949 8.746 18.0558 8.98508 17.7612 8.98508H17.2035L8.97761 17.211V20.5042L14.6916 26.2187C15.0198 26.5469 15.5988 26.596 15.9153 26.596H16.9826V23.9277C16.9826 23.6326 17.2211 23.394 17.5162 23.394C17.8108 23.394 18.0499 23.6326 18.0499 23.9277V26.596H19.6509C20.0597 26.596 20.596 26.4968 20.8746 26.2187L23.1656 23.9277L20.3409 21.103C20.1323 20.8943 20.1323 20.5565 20.3409 20.3484C20.5491 20.1397 20.8869 20.1397 21.0955 20.3484L23.9202 23.1726L26.2112 20.8821C26.4647 20.628 26.5885 20.2278 26.5885 19.6584V18.0574H23.9202C23.6251 18.0574 23.3866 17.8183 23.3866 17.5237C23.3866 17.2286 23.6251 16.9901 23.9202 16.9901H26.5885V15.9227C26.5885 15.4163 26.4365 14.9242 26.2112 14.699L20.7182 9.20602L10.9559 18.9684C10.7472 19.1765 10.4094 19.1765 10.2013 18.9684C9.99264 18.7597 9.99264 18.4219 10.2013 18.2138L20.3409 8.07412C20.5491 7.86546 20.8869 7.86546 21.0955 8.07412L26.9659 13.9444C27.6062 14.5843 27.6559 15.6201 27.6559 15.9227V16.9901H32.4589C32.7534 16.9901 32.9925 17.2286 32.9925 17.5237Z" fill="white"/>
<path fill-rule="evenodd" clip-rule="evenodd" d="M5.77776 6.32903C5.77882 6.36799 5.78149 6.40695 5.7911 6.44591L6.85843 10.7152C6.91927 10.958 7.137 11.1197 7.37608 11.1197C7.41878 11.1197 7.46254 11.1144 7.50576 11.1032C7.79181 11.0322 7.96578 10.7424 7.89427 10.4564L7.2939 8.05597L9.13398 9.89605C9.23804 10.0001 9.37466 10.0524 9.51128 10.0524C9.64736 10.0524 9.78398 10.0001 9.88858 9.89605C10.0967 9.68739 10.0967 9.34958 9.88858 9.14145L8.0485 7.30137L10.4489 7.90121C10.7344 7.97432 11.0247 7.79981 11.0963 7.51324C11.1678 7.22773 10.9938 6.93795 10.7078 6.86644L6.43843 5.79911C6.39894 5.78897 6.35892 5.78523 6.31889 5.7847C6.31462 5.7847 6.31089 5.78363 6.30662 5.78363C6.24578 5.78363 6.18708 5.7975 6.12998 5.81778C6.11557 5.82312 6.10222 5.82899 6.08835 5.83539C6.03125 5.86154 5.97735 5.8941 5.93199 5.93946C5.88609 5.98482 5.85354 6.03925 5.82739 6.09582C5.82152 6.1097 5.81565 6.12251 5.81031 6.13692C5.79003 6.19348 5.77669 6.25219 5.77616 6.31356C5.77616 6.31836 5.77776 6.3237 5.77776 6.32903ZM18.0499 19.1247C18.638 19.1247 19.1172 18.6455 19.1172 18.0574C19.1172 17.4688 18.638 16.9901 18.0499 16.9901C17.4613 16.9901 16.9826 17.4688 16.9826 18.0574C16.9826 18.6455 17.4613 19.1247 18.0499 19.1247ZM18.0499 20.192C16.8726 20.192 15.9153 19.2346 15.9153 18.0574C15.9153 16.8801 16.8726 15.9227 18.0499 15.9227C19.2272 15.9227 20.1846 16.8801 20.1846 18.0574C20.1846 19.2346 19.2272 20.192 18.0499 20.192ZM32.9925 17.5237C32.9925 17.8183 32.7534 18.0574 32.4589 18.0574H27.6559V19.6584C27.6559 20.5128 27.4237 21.1788 26.9659 21.6367L24.6748 23.9277L29.6342 28.887C29.8423 29.0952 29.8423 29.433 29.6342 29.6416C29.5296 29.7457 29.393 29.798 29.2569 29.798C29.1203 29.798 28.9836 29.7457 28.8796 29.6416L23.9202 24.6823L21.6292 26.9733C21.0064 27.5961 20.0378 27.6634 19.6509 27.6634H18.0499V32.4663C18.0499 32.7609 17.8108 33 17.5162 33C17.2211 33 16.9826 32.7609 16.9826 32.4663V27.6634H15.9153C15.3272 27.6634 14.5069 27.5433 13.937 26.9733L8.06665 21.103C7.96632 21.0027 7.91028 20.8671 7.91028 20.7257V16.9901C7.91028 16.8481 7.96632 16.7126 8.06665 16.6128L11.9587 12.7207L11.1075 11.8695C8.2118 14.6718 4.73871 17.0039 2.66382 17.0039C2.1515 17.0039 1.72404 16.862 1.41238 16.5498C0.129981 15.2685 2.02716 11.4346 4.46281 8.47864C4.65066 8.2513 4.98687 8.21874 5.21421 8.40659C5.44155 8.59337 5.4741 8.93012 5.28678 9.15746C2.37831 12.6871 1.78167 15.4104 2.16698 15.7952C2.76202 16.3929 6.32796 15.1484 10.735 10.7424C15.1388 6.33864 16.3801 2.77536 15.784 2.17872C15.349 1.74432 12.6204 2.44609 9.17133 5.28359C8.94452 5.47144 8.60778 5.43781 8.42046 5.21047C8.23315 4.98313 8.2657 4.64692 8.49358 4.45907C11.5136 1.9738 15.246 0.133187 16.5386 1.42412C18.1145 3.00003 15.3533 7.50523 11.861 11.1139L12.7133 11.9661L16.6053 8.07412C16.7051 7.97379 16.8406 7.91775 16.9826 7.91775H17.7612C18.0558 7.91775 18.2949 8.1563 18.2949 8.45142C18.2949 8.746 18.0558 8.98508 17.7612 8.98508H17.2035L8.97761 17.211V20.5042L14.6916 26.2187C15.0198 26.5469 15.5988 26.596 15.9153 26.596H16.9826V23.9277C16.9826 23.6326 17.2211 23.394 17.5162 23.394C17.8108 23.394 18.0499 23.6326 18.0499 23.9277V26.596H19.6509C20.0597 26.596 20.596 26.4968 20.8746 26.2187L23.1656 23.9277L20.3409 21.103C20.1323 20.8943 20.1323 20.5565 20.3409 20.3484C20.5491 20.1397 20.8869 20.1397 21.0955 20.3484L23.9202 23.1726L26.2112 20.8821C26.4647 20.628 26.5885 20.2278 26.5885 19.6584V18.0574H23.9202C23.6251 18.0574 23.3866 17.8183 23.3866 17.5237C23.3866 17.2286 23.6251 16.9901 23.9202 16.9901H26.5885V15.9227C26.5885 15.4163 26.4365 14.9242 26.2112 14.699L20.7182 9.20602L10.9559 18.9684C10.7472 19.1765 10.4094 19.1765 10.2013 18.9684C9.99264 18.7597 9.99264 18.4219 10.2013 18.2138L20.3409 8.07412C20.5491 7.86546 20.8869 7.86546 21.0955 8.07412L26.9659 13.9444C27.6062 14.5843 27.6559 15.6201 27.6559 15.9227V16.9901H32.4589C32.7534 16.9901 32.9925 17.2286 32.9925 17.5237Z" stroke="white" stroke-width="0.4" mask="url(#path-1-outside-1_384_4684)"/>
</svg>
