<svg id="erPRs4vhYgH1" xmlns="http://www.w3.org/2000/svg" xmlns:xlink="http://www.w3.org/1999/xlink" viewBox="0 0 215 215" shape-rendering="geometricPrecision" text-rendering="geometricPrecision">
<style><![CDATA[
#erPRs4vhYgH2_tr {animation: erPRs4vhYgH2_tr__tr 3000ms linear infinite normal forwards}@keyframes erPRs4vhYgH2_tr__tr { 0% {transform: translate(107.499995px,107.50001px) rotate(0deg)} 100% {transform: translate(107.499995px,107.50001px) rotate(359deg)}} #erPRs4vhYgH3_tr {animation: erPRs4vhYgH3_tr__tr 3000ms linear infinite normal forwards}@keyframes erPRs4vhYgH3_tr__tr { 0% {transform: translate(107.14px,107.500443px) rotate(359deg)} 100% {transform: translate(107.14px,107.500443px) rotate(0deg)}}
]]></style>
<g id="erPRs4vhYgH2_tr" transform="translate(107.499995,107.50001) rotate(0)"><path d="M171.482,139.26c0,.001-.001.001-.001.002l-69.707,36.595c-2.9107,1.528-6.3866,1.528-9.2972,0L28.8693,142.456c-3.2902-1.727-5.351-5.137-5.351-8.853v-65.2107c0-3.7161,2.0607-7.1257,5.3507-8.8535l63.6024-33.4c2.9109-1.5286,6.3871-1.5287,9.2976-.0003l65.059,34.1592c2.911,1.5283,6.387,1.5283,9.297-.0001l2.008-1.0542c7.135-3.7463,7.135-13.961,0-17.7074L101.774,1.441c-2.9106-1.528453-6.3868-1.528429-9.2977.00006L0.372204,49.805C0.143744,49.9218,0,50.1568,0,50.4134v95.5426c0,3.716,2.06079,7.126,5.351,8.854l87.124,45.748c2.9116,1.529,6.3888,1.529,9.3-.001l80.637-42.365c5.324-2.797,5.32-10.422-.008-13.213l-10.919-5.721c-.002,0-.003,0-.003.002Z" transform="translate(-93.2,-100.999656)" fill="#00fff0"/></g><g id="erPRs4vhYgH3_tr" transform="translate(107.14,107.500443) rotate(359)"><path d="M101.611,47.3871c-2.8866-1.4968-6.3205-1.4969-9.207-.0003L60.0715,64.151c-7.1735,3.7194-7.1743,13.98-.0014,17.7006c2.8777,1.4927,6.3015,1.4929,9.1795.0007l23.1535-12.005c2.887-1.4969,6.3215-1.4965,9.2079.0011L123.95,81.4378c3.315,1.7196,5.395,5.1426,5.395,8.8766v21.3776c0,3.735-2.082,7.159-5.398,8.878l-22.343,11.581c-2.8855,1.495-6.3176,1.495-9.2029,0L69.2423,120.15c-2.8767-1.491-6.2984-1.491-9.1748.001-7.1731,3.719-7.1731,13.979,0,17.698l32.3318,16.764c2.8863,1.497,6.32,1.497,9.2067,0l43.997-22.815c3.316-1.719,5.397-5.142,5.397-8.877v-43.8423c0-3.7346-2.081-7.158-5.396-8.8773L101.611,47.3871Z" transform="translate(-102.84,-101.000088)" fill="#00fff0"/></g></svg>
