<svg width="42" height="42" viewBox="0 0 42 42" fill="none" xmlns="http://www.w3.org/2000/svg">
<path d="M21.0002 21.7659C21.4231 21.7659 21.766 21.423 21.766 21.0001C21.766 20.5771 21.4231 20.2343 21.0002 20.2343C20.5772 20.2343 20.2344 20.5771 20.2344 21.0001C20.2344 21.423 20.5772 21.7659 21.0002 21.7659Z" stroke="white" stroke-width="1.5" stroke-linecap="round" stroke-linejoin="round"/>
<path d="M21.0005 27.0045C17.6931 27.0045 14.9961 24.3075 14.9961 21C14.9961 17.6926 17.6931 14.9956 21.0005 14.9956C24.308 14.9956 27.005 17.6926 27.005 21C27.005 24.3075 24.308 27.0045 21.0005 27.0045Z" stroke="white" stroke-width="1.5" stroke-linecap="round" stroke-linejoin="round"/>
<path d="M30.2004 30.1952C35.2803 25.1153 35.2803 16.8793 30.2004 11.7994C25.1206 6.71959 16.8845 6.71959 11.8047 11.7994C6.72481 16.8793 6.72481 25.1153 11.8047 30.1952C16.8845 35.275 25.1206 35.275 30.2004 30.1952Z" stroke="white" stroke-width="1.5" stroke-linecap="round" stroke-linejoin="round"/>
<path d="M21 41C32.0457 41 41 32.0457 41 21C41 9.95431 32.0457 1 21 1C9.95429 1 1 9.95431 1 21C1 32.0457 9.95429 41 21 41Z" stroke="white" stroke-width="1.5" stroke-linecap="round" stroke-linejoin="round"/>
<path d="M21 21L39.5683 2.44287" stroke="white" stroke-width="1.5" stroke-linecap="round" stroke-linejoin="round"/>
</svg>
