<svg width="20" height="20" viewBox="0 0 20 20" fill="none" xmlns="http://www.w3.org/2000/svg">
<path fill-rule="evenodd" clip-rule="evenodd" d="M10 10C11.1046 10 12 9.1046 12 8C12 6.89543 11.1046 6 10 6C8.8954 6 8 6.89543 8 8C8 9.1046 8.8954 10 10 10ZM10 11.5C11.933 11.5 13.5 9.933 13.5 8C13.5 6.06701 11.933 4.5 10 4.5C8.067 4.5 6.5 6.06701 6.5 8C6.5 9.933 8.067 11.5 10 11.5Z" fill="white"/>
<path fill-rule="evenodd" clip-rule="evenodd" d="M8.9776 19.9484C9.3137 19.9825 9.6548 20 10 20C15.5228 20 20 15.5228 20 10C20 4.47715 15.5228 0 10 0C4.47715 0 0 4.47715 0 10C0 12.4815 0.90389 14.752 2.4004 16.5C3.77451 18.105 5.64823 19.2696 7.78062 19.7528C8.1714 19.8414 8.5709 19.9071 8.9776 19.9484ZM15.4776 16.4999C14.0365 17.7156 12.1856 18.4608 10.1616 18.4985C10.1079 18.4995 10.054 18.5 10 18.5C9.9569 18.5 9.914 18.4997 9.8711 18.499C7.83437 18.4688 5.97122 17.7221 4.52238 16.4999C6.00263 15.2509 7.9131 14.5 10 14.5C12.0869 14.5 13.9973 15.2509 15.4776 16.4999ZM16.5375 15.4327C14.7845 13.9169 12.4993 13 10 13C7.50064 13 5.21545 13.9169 3.46245 15.4327C2.23701 13.9597 1.5 12.0659 1.5 10C1.5 5.30558 5.30558 1.5 10 1.5C14.6944 1.5 18.5 5.30558 18.5 10C18.5 12.0659 17.763 13.9597 16.5375 15.4327Z" fill="white"/>
</svg>
